{"glyphs":{"0":{"ha":793,"x_min":50,"x_max":743,"o":"m 396 -14 q 137 115 224 -14 q 50 496 50 244 q 135 883 50 759 q 396 1007 220 1007 q 655 878 567 1007 q 743 496 743 748 q 658 111 743 235 q 396 -14 573 -14 m 396 155 q 502 234 469 155 q 534 496 534 312 q 502 758 534 679 q 396 838 469 838 q 291 760 323 838 q 258 496 258 682 q 291 233 258 310 q 396 155 323 155 z "},"1":{"ha":793,"x_min":82,"x_max":574,"o":"m 574 0 l 364 0 l 364 574 q 370 771 364 652 q 336 738 360 760 q 297 703 313 715 l 183 611 l 82 737 l 401 991 l 574 991 l 574 0 z "},"2":{"ha":793,"x_min":53,"x_max":749,"o":"m 749 0 l 56 0 l 56 146 l 304 397 q 433 533 389 483 q 494 626 476 583 q 513 713 513 668 q 481 800 513 769 q 392 831 449 831 q 285 807 339 831 q 167 729 231 783 l 53 864 q 226 975 144 945 q 407 1006 307 1006 q 569 973 498 1006 q 681 878 641 940 q 721 737 721 816 q 706 635 721 684 q 659 536 691 586 q 581 439 626 487 q 444 306 535 391 l 317 186 l 317 176 l 749 176 l 749 0 z "},"3":{"ha":793,"x_min":53,"x_max":739,"o":"m 496 522 l 496 518 q 677 445 614 503 q 739 289 739 387 q 635 67 739 147 q 339 -14 532 -14 q 53 40 176 -14 l 53 218 q 187 169 117 186 q 317 153 256 153 q 470 188 420 153 q 519 301 519 224 q 461 401 519 372 q 281 429 403 429 l 205 429 l 205 590 l 282 590 q 449 619 393 590 q 504 724 504 648 q 363 836 504 836 q 261 819 312 836 q 151 764 210 802 l 54 908 q 378 1006 191 1006 q 622 943 533 1006 q 710 770 710 880 q 654 612 710 677 q 496 522 598 547 z "},"4":{"ha":793,"x_min":24,"x_max":771,"o":"m 771 205 l 652 205 l 652 0 l 447 0 l 447 205 l 24 205 l 24 351 l 458 991 l 652 991 l 652 368 l 771 368 l 771 205 m 447 368 l 447 536 q 450 648 447 578 q 456 751 453 719 l 450 751 q 390 643 425 694 l 208 368 l 447 368 z "},"5":{"ha":793,"x_min":68,"x_max":730,"o":"m 68 40 l 68 221 q 193 175 121 193 q 328 157 266 157 q 519 314 519 157 q 321 464 519 464 q 171 441 255 464 l 87 486 l 125 991 l 663 991 l 663 814 l 309 814 l 290 619 q 416 633 352 633 q 644 553 558 633 q 730 332 730 472 q 628 76 730 166 q 335 -14 526 -14 q 68 40 170 -14 z "},"6":{"ha":793,"x_min":49,"x_max":749,"o":"m 679 993 l 679 825 q 559 839 618 839 q 323 766 399 839 q 241 529 248 692 l 250 529 q 465 644 316 644 q 673 561 597 644 q 749 330 749 477 q 658 79 749 171 q 411 -14 567 -14 q 147 100 245 -14 q 49 421 49 214 q 174 860 49 716 q 546 1003 298 1003 q 679 993 629 1003 m 546 328 q 511 443 546 402 q 411 484 477 484 q 301 441 346 484 q 257 346 257 399 q 299 211 257 268 q 407 154 340 154 q 510 199 473 154 q 546 328 546 243 z "},"7":{"ha":793,"x_min":37,"x_max":749,"o":"m 154 0 l 526 814 l 37 814 l 37 990 l 749 990 l 749 859 l 374 0 l 154 0 z "},"8":{"ha":793,"x_min":49,"x_max":745,"o":"m 536 524 q 694 401 644 467 q 745 257 745 336 q 649 61 745 136 q 397 -14 554 -14 q 140 57 231 -14 q 49 252 49 127 q 96 405 49 338 q 239 518 144 471 q 118 630 157 569 q 79 766 79 691 q 121 893 79 839 q 236 976 162 947 q 397 1004 310 1004 q 626 940 538 1004 q 714 765 714 876 q 670 627 714 688 q 536 524 625 567 m 397 611 q 489 674 462 641 q 517 750 517 707 q 484 823 517 795 q 396 851 450 851 q 310 823 342 851 q 277 750 277 795 q 306 675 277 708 q 397 611 334 642 m 387 432 q 279 357 315 399 q 243 264 243 315 q 283 174 243 208 q 395 140 323 140 q 510 173 469 140 q 550 262 550 205 q 518 342 550 304 q 406 422 486 380 l 387 432 z "},"9":{"ha":793,"x_min":45,"x_max":745,"o":"m 114 -4 l 114 164 q 233 150 172 150 q 469 222 393 150 q 551 460 545 294 l 543 460 q 452 370 505 395 q 323 345 400 345 q 119 428 194 345 q 45 659 45 511 q 135 911 45 819 q 382 1003 226 1003 q 646 889 547 1003 q 745 568 745 774 q 620 130 745 273 q 248 -14 495 -14 q 114 -4 161 -14 m 248 661 q 282 546 248 587 q 382 505 317 505 q 492 547 447 505 q 536 643 536 589 q 495 778 536 721 q 386 835 453 835 q 284 790 320 835 q 248 661 248 745 z "}," ":{"ha":361,"x_min":0,"x_max":0,"o":""},"ஂ":{"ha":528,"x_min":65,"x_max":463,"o":"m 263 1181 q 406 1125 350 1181 q 463 984 463 1069 q 407 844 463 900 q 263 789 351 789 q 120 845 176 789 q 65 984 65 901 q 121 1125 65 1069 q 263 1181 176 1181 m 263 909 q 316 930 296 909 q 336 984 336 951 q 316 1040 336 1019 q 263 1061 296 1061 q 212 1039 231 1061 q 192 984 192 1018 q 211 930 192 951 q 263 909 231 909 z "},"ஃ":{"ha":1374,"x_min":60,"x_max":1314,"o":"m 399 916 q 477 1109 399 1038 q 688 1181 555 1181 q 898 1109 821 1181 q 975 916 975 1037 q 898 723 975 793 q 691 652 821 652 q 477 722 555 652 q 399 916 399 793 m 584 915 q 612 826 584 857 q 688 794 640 794 q 763 826 736 794 q 791 917 791 858 q 763 1006 791 974 q 688 1039 735 1039 q 612 1007 640 1039 q 584 915 584 975 m 738 248 q 816 441 738 370 q 1027 513 894 513 q 1237 441 1160 513 q 1314 248 1314 369 q 1238 56 1314 126 q 1030 -15 1161 -15 q 815 55 893 -15 q 738 248 738 125 m 923 247 q 951 158 923 189 q 1027 126 979 126 q 1102 158 1075 126 q 1130 249 1130 190 q 1102 338 1130 306 q 1027 371 1074 371 q 951 339 979 371 q 923 247 923 307 m 60 248 q 138 441 60 370 q 349 513 216 513 q 559 441 481 513 q 636 248 636 369 q 559 56 636 126 q 352 -15 483 -15 q 137 55 215 -15 q 60 248 60 125 m 245 247 q 273 158 245 189 q 349 126 301 126 q 424 158 397 126 q 452 249 452 190 q 424 338 452 306 q 349 371 396 371 q 273 339 300 371 q 245 247 245 307 z "},"அ":{"ha":1694,"x_min":35,"x_max":1583,"o":"m 1583 -214 l 1378 -214 l 1378 121 l 1187 121 q 930 -113 1107 -30 q 513 -195 752 -195 l 488 -195 q 156 -118 277 -195 q 35 88 35 -41 q 59 179 35 138 q 137 243 83 220 q 315 267 192 267 l 1027 267 q 1031 340 1031 292 q 1006 489 1031 423 q 929 597 980 555 q 933 545 933 573 q 867 377 933 437 q 671 317 800 317 q 480 378 554 317 q 407 543 407 439 q 494 730 407 664 q 735 796 581 796 q 993 736 882 796 q 1165 570 1105 677 q 1225 339 1225 463 q 1221 267 1225 296 l 1378 267 l 1378 780 l 1583 780 l 1583 -214 m 749 657 l 740 657 q 592 553 592 657 q 617 484 592 510 q 684 458 642 458 q 772 565 772 458 q 749 657 772 610 m 529 -48 q 799 -6 688 -48 q 976 121 911 36 l 368 121 q 279 117 302 121 q 245 101 257 113 q 233 68 233 89 q 304 -18 233 12 q 513 -48 375 -48 l 529 -48 m 330 -446 z "},"ஆ":{"ha":2008,"x_min":35,"x_max":2002,"o":"m 1583 -172 l 1378 -172 l 1378 121 l 1187 121 q 930 -113 1107 -30 q 513 -195 752 -195 l 488 -195 q 156 -118 277 -195 q 35 88 35 -41 q 59 179 35 138 q 137 243 83 220 q 315 267 192 267 l 1027 267 q 1031 340 1031 292 q 1006 489 1031 423 q 929 597 980 555 q 933 545 933 573 q 867 377 933 437 q 671 317 800 317 q 480 378 554 317 q 407 543 407 439 q 494 730 407 664 q 735 796 581 796 q 993 736 882 796 q 1165 570 1105 677 q 1225 339 1225 463 q 1221 267 1225 296 l 1378 267 l 1378 780 l 1583 780 l 1583 133 q 1745 163 1649 163 q 1875 133 1815 163 q 1969 50 1935 104 q 2002 -76 2002 -4 q 1847 -347 2002 -247 q 1413 -446 1693 -446 l 1390 -446 q 1080 -383 1192 -446 q 969 -208 969 -319 q 1029 -86 969 -138 q 1184 -34 1090 -34 q 1333 -58 1260 -34 l 1310 -189 q 1223 -176 1265 -176 q 1153 -218 1153 -176 q 1414 -300 1153 -300 l 1422 -300 q 1704 -243 1600 -300 q 1808 -87 1808 -186 q 1776 -8 1808 -37 q 1688 20 1745 20 q 1583 -5 1635 20 l 1583 -172 m 749 657 l 740 657 q 592 553 592 657 q 617 484 592 510 q 684 458 642 458 q 772 565 772 458 q 749 657 772 610 m 529 -48 q 799 -6 688 -48 q 976 121 911 36 l 368 121 q 279 117 302 121 q 245 101 257 113 q 233 68 233 89 q 304 -18 233 12 q 513 -48 375 -48 l 529 -48 z "},"இ":{"ha":1709,"x_min":41,"x_max":1603,"o":"m 197 100 q 126 291 149 191 q 102 519 102 391 q 195 864 102 711 q 460 1100 288 1018 q 866 1181 632 1181 q 1196 1136 1056 1181 q 1429 994 1336 1090 q 1563 761 1522 898 q 1603 398 1603 625 l 1603 0 l 1398 0 l 1398 364 q 1339 768 1398 637 q 1166 964 1280 898 q 863 1031 1052 1031 q 569 966 699 1031 q 367 782 438 902 q 296 501 296 661 q 313 321 296 396 q 360 180 330 247 q 714 233 516 233 q 1011 195 869 233 q 1027 348 1027 268 q 1007 488 1027 425 q 947 595 987 552 q 955 548 955 572 q 885 382 955 447 q 691 317 816 317 q 505 380 578 317 q 433 548 433 442 q 523 731 433 665 q 766 796 614 796 q 1101 677 981 796 q 1220 351 1220 558 q 1190 125 1220 227 q 1339 -6 1289 70 q 1390 -178 1390 -81 q 1297 -377 1390 -307 q 1027 -446 1205 -446 q 871 -431 948 -446 q 717 -385 793 -415 q 556 -431 637 -415 q 393 -446 475 -446 q 133 -375 224 -446 q 41 -178 41 -304 q 81 -25 41 -96 q 197 100 120 45 m 771 657 l 757 657 q 650 632 684 657 q 615 554 615 606 q 640 484 615 510 q 706 458 664 458 q 793 565 793 458 q 771 657 793 609 m 712 -220 q 861 -102 798 -171 q 966 56 924 -33 q 718 86 851 86 q 431 49 555 86 q 558 -108 488 -41 q 712 -220 629 -175 m 1133 -20 q 1034 -171 1091 -104 q 904 -288 977 -237 q 1023 -299 966 -299 q 1159 -263 1112 -299 q 1205 -159 1205 -227 q 1187 -84 1205 -119 q 1133 -20 1169 -50 m 532 -287 q 395 -176 458 -239 q 279 -35 332 -113 q 225 -157 225 -88 q 271 -263 225 -227 q 407 -299 316 -299 q 532 -287 471 -299 z "},"ஈ":{"ha":1171,"x_min":111,"x_max":1147,"o":"m 111 780 l 1147 780 l 1147 633 l 841 633 l 841 0 l 636 0 l 636 633 l 316 633 l 316 0 l 111 0 l 111 780 m 582 380 q 552 304 582 334 q 476 274 522 274 q 400 304 431 274 q 370 380 370 334 q 400 455 370 425 q 476 486 431 486 q 552 456 522 486 q 582 380 582 426 m 1107 380 q 1077 304 1107 334 q 1001 274 1046 274 q 925 304 956 274 q 895 380 895 334 q 925 455 895 425 q 1001 486 956 486 q 1077 456 1046 486 q 1107 380 1107 426 z "},"உ":{"ha":1511,"x_min":64,"x_max":1488,"o":"m 584 642 q 593 562 593 608 q 525 408 593 462 q 327 354 456 354 q 136 408 208 354 q 64 559 64 463 q 160 737 64 677 q 446 796 255 796 q 799 717 675 796 q 924 505 924 638 q 820 299 924 373 q 479 204 715 224 l 314 190 q 260 166 260 185 q 272 151 260 155 q 311 147 283 147 l 1488 147 l 1488 0 l 302 0 q 128 39 187 0 q 68 151 68 78 q 125 268 68 223 q 295 322 182 312 l 412 332 q 557 353 498 340 q 652 384 615 366 q 707 430 689 403 q 726 500 726 457 q 584 642 726 605 m 414 654 l 391 655 q 283 635 320 657 q 247 570 247 612 q 338 495 247 495 q 402 520 380 495 q 425 597 425 546 q 414 654 425 621 z "},"ஊ":{"ha":2336,"x_min":64,"x_max":2272,"o":"m 584 642 q 593 562 593 608 q 525 408 593 462 q 327 354 456 354 q 136 408 208 354 q 64 559 64 463 q 160 737 64 677 q 446 796 255 796 q 799 717 675 796 q 924 505 924 638 q 820 299 924 373 q 479 204 715 224 l 314 190 q 260 166 260 185 q 272 151 260 155 q 311 147 283 147 l 2272 147 l 2272 0 l 302 0 q 128 39 187 0 q 68 151 68 78 q 125 268 68 223 q 295 322 182 312 l 412 332 q 557 353 498 340 q 652 384 615 366 q 707 430 689 403 q 726 500 726 457 q 584 642 726 605 m 414 654 l 391 655 q 283 635 320 657 q 247 570 247 612 q 338 495 247 495 q 402 520 380 495 q 425 597 425 546 q 414 654 425 621 m 1621 593 q 1419 661 1537 661 q 1295 634 1349 661 q 1215 556 1242 608 q 1322 576 1265 576 q 1472 527 1415 576 q 1529 396 1529 479 q 1469 253 1529 304 q 1297 203 1409 203 q 1105 270 1173 203 q 1038 464 1038 338 q 1087 635 1038 559 q 1229 753 1137 711 q 1432 796 1320 796 q 1645 748 1548 796 l 1645 780 l 2272 780 l 2272 644 l 2121 644 l 2121 214 l 1946 214 l 1946 644 l 1797 644 l 1797 214 l 1621 214 l 1621 593 m 1192 427 q 1297 325 1201 325 q 1364 389 1364 325 q 1343 438 1364 421 q 1280 456 1321 456 q 1192 427 1235 456 z "},"எ":{"ha":1219,"x_min":64,"x_max":1196,"o":"m 790 0 l 790 633 l 612 633 q 429 610 492 633 q 325 548 366 587 q 264 449 285 508 q 417 482 337 482 q 599 418 532 482 q 666 242 666 353 q 592 52 666 119 q 382 -16 518 -16 q 149 74 233 -16 q 64 327 64 163 q 111 547 64 456 q 240 690 157 637 q 415 761 322 742 q 669 780 509 780 l 1196 780 l 1196 633 l 995 633 l 995 0 l 790 0 m 245 298 q 284 170 248 215 q 381 125 321 125 q 449 154 424 125 q 474 232 474 182 q 444 313 474 283 q 366 343 414 343 q 245 298 305 343 z "},"ஏ":{"ha":1219,"x_min":64,"x_max":1196,"o":"m 790 45 l 790 633 l 612 633 q 429 610 492 633 q 325 548 366 587 q 264 449 285 508 q 417 482 337 482 q 599 418 532 482 q 666 242 666 353 q 592 52 666 119 q 382 -16 518 -16 q 149 74 233 -16 q 64 327 64 163 q 111 547 64 456 q 240 690 157 637 q 415 761 322 742 q 669 780 509 780 l 1196 780 l 1196 633 l 995 633 l 995 0 l 685 -296 l 556 -176 l 790 45 m 245 298 q 284 170 248 215 q 381 125 321 125 q 449 154 424 125 q 474 232 474 182 q 444 313 474 283 q 366 343 414 343 q 245 298 305 343 m 669 -446 z "},"ஐ":{"ha":1571,"x_min":71,"x_max":1493,"o":"m 489 -446 q 178 -363 285 -446 q 71 -127 71 -280 q 120 49 71 -25 q 273 167 170 123 q 572 211 376 211 l 856 211 q 1024 217 964 211 q 1132 238 1083 223 q 1216 280 1180 252 q 1271 349 1253 308 q 1289 448 1289 391 q 1239 596 1289 543 q 1108 649 1190 649 q 1014 620 1050 649 q 963 544 977 591 q 950 408 950 496 l 950 294 l 745 294 l 745 372 q 720 539 745 481 q 638 628 695 598 q 488 659 582 659 q 585 582 551 633 q 618 466 618 532 q 545 300 618 361 q 341 239 471 239 q 198 269 259 239 q 104 353 137 298 q 71 472 71 408 q 188 709 71 623 q 500 796 305 796 q 700 762 614 796 q 840 661 785 728 q 957 762 886 728 q 1122 796 1028 796 q 1317 756 1234 796 q 1447 637 1401 715 q 1493 456 1493 558 q 1435 239 1493 326 q 1253 108 1377 152 q 903 64 1128 64 l 580 64 q 440 53 492 64 q 349 18 387 43 q 293 -41 310 -6 q 276 -122 276 -76 q 337 -252 276 -205 q 502 -298 397 -298 q 643 -272 589 -298 q 721 -199 696 -245 q 745 -61 745 -153 l 745 -23 l 950 -23 l 950 -67 q 975 -214 950 -168 q 1039 -279 1000 -260 q 1128 -298 1078 -298 q 1246 -254 1203 -298 q 1289 -132 1289 -210 q 1263 7 1289 -61 l 1458 67 q 1493 -125 1493 -12 q 1402 -363 1493 -281 q 1138 -446 1311 -446 q 839 -309 931 -446 q 685 -413 771 -380 q 489 -446 598 -446 m 303 604 q 248 479 248 557 q 273 405 248 432 q 347 378 299 378 q 419 402 393 378 q 446 468 446 427 q 409 560 446 525 q 303 604 372 595 z "},"ஒ":{"ha":1570,"x_min":56,"x_max":1514,"o":"m 701 189 q 743 347 701 271 q 864 467 785 423 q 1048 511 943 511 q 1155 494 1109 511 q 1115 323 1115 406 q 1141 238 1115 268 q 1218 208 1166 208 q 1291 241 1266 208 q 1316 335 1316 274 q 1252 498 1316 427 q 1066 609 1187 570 q 783 649 944 649 q 466 612 603 649 q 266 505 329 574 q 400 539 328 539 q 571 480 507 539 q 635 319 635 421 q 563 138 635 201 q 353 76 490 76 q 139 156 221 76 q 56 366 56 235 q 244 682 56 567 q 766 796 431 796 q 1159 749 1002 796 q 1414 602 1315 702 q 1514 342 1514 501 q 1479 200 1514 264 q 1377 101 1445 136 q 1213 66 1309 66 q 1021 123 1090 66 q 952 279 952 180 q 966 361 952 321 q 901 287 923 330 q 878 195 878 244 q 900 93 878 135 q 966 22 922 51 q 1066 -17 1011 -7 q 1219 -28 1122 -28 l 1376 -28 l 1376 -175 l 1097 -175 q 1077 -208 1084 -193 q 911 -390 1013 -334 q 658 -446 809 -446 q 417 -380 505 -446 q 330 -195 330 -315 q 406 33 330 -75 l 572 -42 q 524 -174 524 -108 q 561 -267 524 -234 q 663 -299 597 -299 q 788 -264 736 -299 q 880 -162 840 -229 q 905 -127 890 -145 q 749 3 798 -75 q 701 189 701 80 m 234 366 l 234 364 q 266 254 234 292 q 359 217 298 217 q 433 244 407 217 q 459 319 459 271 q 431 388 459 362 q 357 414 404 414 q 234 366 292 414 z "},"ஓ":{"ha":1570,"x_min":56,"x_max":1514,"o":"m 701 189 q 743 347 701 271 q 864 467 785 423 q 1048 511 943 511 q 1155 494 1109 511 q 1115 323 1115 406 q 1141 238 1115 268 q 1218 208 1166 208 q 1291 241 1266 208 q 1316 335 1316 274 q 1252 498 1316 427 q 1066 609 1187 570 q 783 649 944 649 q 466 612 603 649 q 266 505 329 574 q 400 539 328 539 q 571 480 507 539 q 635 319 635 421 q 563 138 635 201 q 353 76 490 76 q 139 156 221 76 q 56 366 56 235 q 244 682 56 567 q 766 796 431 796 q 1159 749 1002 796 q 1414 602 1315 702 q 1514 342 1514 501 q 1479 200 1514 264 q 1377 101 1445 136 q 1213 66 1309 66 q 1021 123 1090 66 q 952 279 952 180 q 966 361 952 321 q 901 287 923 330 q 878 195 878 244 q 900 93 878 135 q 966 22 922 51 q 1066 -17 1011 -7 q 1219 -28 1122 -28 l 1376 -28 l 1376 -175 l 1097 -175 q 1077 -208 1084 -193 q 904 -391 1011 -336 q 633 -446 797 -446 l 608 -446 q 378 -417 460 -446 q 250 -332 295 -388 q 205 -201 205 -277 q 276 -37 205 -98 q 475 24 347 24 q 669 -33 601 24 q 738 -184 738 -90 q 713 -304 738 -247 q 807 -261 766 -295 q 887 -163 848 -227 q 909 -130 899 -143 q 750 1 800 -77 q 701 189 701 79 m 234 366 l 234 364 q 266 254 234 292 q 359 217 298 217 q 433 244 407 217 q 459 319 459 271 q 431 388 459 362 q 357 414 404 414 q 234 366 292 414 m 537 -307 q 568 -208 568 -260 q 542 -141 568 -165 q 471 -117 515 -117 q 406 -139 429 -117 q 382 -199 382 -161 q 421 -277 382 -250 q 537 -307 460 -304 z "},"ஔ":{"ha":3196,"x_min":56,"x_max":3172,"o":"m 701 189 q 743 347 701 271 q 864 467 785 423 q 1048 511 943 511 q 1155 494 1109 511 q 1115 323 1115 406 q 1141 238 1115 268 q 1218 208 1166 208 q 1291 241 1266 208 q 1316 335 1316 274 q 1252 498 1316 427 q 1066 609 1187 570 q 783 649 944 649 q 466 612 603 649 q 266 505 329 574 q 400 539 328 539 q 571 480 507 539 q 635 319 635 421 q 563 138 635 201 q 353 76 490 76 q 139 156 221 76 q 56 366 56 235 q 244 682 56 567 q 766 796 431 796 q 1159 749 1002 796 q 1414 602 1315 702 q 1514 342 1514 501 q 1479 200 1514 264 q 1377 101 1445 136 q 1213 66 1309 66 q 1021 123 1090 66 q 952 279 952 180 q 966 361 952 321 q 901 287 923 330 q 878 195 878 244 q 900 93 878 135 q 966 22 922 51 q 1066 -17 1011 -7 q 1219 -28 1122 -28 l 1376 -28 l 1376 -175 l 1097 -175 q 1077 -208 1084 -193 q 911 -390 1013 -334 q 658 -446 809 -446 q 417 -380 505 -446 q 330 -195 330 -315 q 406 33 330 -75 l 572 -42 q 524 -174 524 -108 q 561 -267 524 -234 q 663 -299 597 -299 q 788 -264 736 -299 q 880 -162 840 -229 q 905 -127 890 -145 q 749 3 798 -75 q 701 189 701 80 m 234 366 l 234 364 q 266 254 234 292 q 359 217 298 217 q 433 244 407 217 q 459 319 459 271 q 431 388 459 362 q 357 414 404 414 q 234 366 292 414 m 2353 533 q 2096 646 2246 646 q 1931 594 2002 646 q 1828 450 1860 542 q 1980 482 1900 482 q 2162 418 2095 482 q 2229 242 2229 353 q 2155 52 2229 119 q 1946 -16 2081 -16 q 1711 76 1794 -16 q 1628 344 1628 169 q 1689 582 1628 479 q 1861 741 1750 685 q 2106 796 1971 796 q 2250 779 2186 796 q 2382 720 2315 761 l 2382 780 l 3172 780 l 3172 633 l 2972 633 l 2972 0 l 2767 0 l 2767 633 l 2558 633 l 2558 0 l 2353 0 l 2353 533 m 1809 299 q 1849 170 1813 215 q 1944 125 1885 125 q 2012 154 1987 125 q 2037 232 2037 182 q 2007 313 2037 283 q 1929 343 1977 343 q 1809 299 1869 343 z "},"க":{"ha":1270,"x_min":60,"x_max":1211,"o":"m 793 344 l 793 334 q 772 171 793 233 q 704 67 751 109 q 585 4 658 24 q 408 -16 512 -16 q 155 49 250 -16 q 60 229 60 115 q 95 349 60 298 q 201 432 130 400 l 201 780 l 1057 780 l 1057 633 l 793 633 l 793 482 l 795 482 q 979 469 909 482 q 1103 422 1049 456 q 1184 338 1158 389 q 1211 224 1211 288 q 1139 47 1211 111 q 937 -16 1067 -16 q 783 -1 843 -16 l 817 142 q 898 134 853 134 q 1017 234 1017 134 q 967 316 1017 289 q 793 344 917 343 m 384 476 q 507 482 447 482 l 595 482 l 595 633 l 384 633 l 384 476 m 595 344 l 492 344 q 315 318 370 344 q 260 231 260 292 q 304 157 260 183 q 422 131 348 131 q 556 180 517 131 q 595 330 595 229 l 595 344 z "},"ங":{"ha":1643,"x_min":111,"x_max":1532,"o":"m 519 0 l 519 147 l 909 147 q 938 196 927 167 q 948 254 948 224 q 848 356 948 356 q 724 310 788 356 l 724 222 l 519 222 l 519 633 l 316 633 l 316 0 l 111 0 l 111 780 l 1017 780 l 1017 633 l 724 633 l 724 453 q 900 503 802 503 q 1086 444 1021 503 q 1151 288 1151 385 q 1109 147 1151 207 l 1327 147 l 1327 780 l 1532 780 l 1532 0 l 519 0 z "},"ச":{"ha":1122,"x_min":60,"x_max":1057,"o":"m 793 344 l 793 334 q 772 171 793 233 q 704 67 751 109 q 585 4 658 24 q 408 -16 512 -16 q 155 49 250 -16 q 60 229 60 115 q 95 349 60 298 q 201 432 130 400 l 201 780 l 1057 780 l 1057 633 l 793 633 l 793 482 l 1057 482 l 1057 344 l 793 344 m 384 476 q 507 482 447 482 l 595 482 l 595 633 l 384 633 l 384 476 m 595 344 l 492 344 q 315 318 370 344 q 260 231 260 292 q 304 157 260 183 q 422 131 348 131 q 556 180 517 131 q 595 330 595 229 l 595 344 z "},"ஜ":{"ha":1571,"x_min":71,"x_max":1493,"o":"m 452 -446 q 169 -362 267 -446 q 71 -129 71 -278 q 120 49 71 -25 q 273 167 170 123 q 572 211 376 211 l 856 211 q 1024 217 964 211 q 1132 238 1083 223 q 1216 280 1180 252 q 1271 349 1253 308 q 1289 448 1289 391 q 1239 596 1289 543 q 1108 649 1190 649 q 1014 620 1050 649 q 963 544 977 591 q 950 408 950 496 l 950 294 l 745 294 l 745 372 q 720 539 745 481 q 638 628 695 598 q 488 659 582 659 q 585 582 551 633 q 618 466 618 532 q 546 300 618 360 q 341 239 473 239 q 198 269 259 239 q 104 353 137 298 q 71 472 71 408 q 188 709 71 623 q 500 796 305 796 q 692 767 612 796 q 840 661 771 738 q 957 762 886 728 q 1122 796 1028 796 q 1317 756 1234 796 q 1447 637 1401 715 q 1493 456 1493 558 q 1435 239 1493 326 q 1253 108 1377 152 q 903 64 1128 64 l 580 64 q 440 53 492 64 q 349 18 387 43 q 293 -41 310 -6 q 276 -121 276 -75 q 327 -251 276 -204 q 470 -298 378 -298 q 602 -263 534 -298 q 738 -160 671 -227 q 938 -8 848 -50 q 1173 33 1028 33 q 1329 1 1260 33 q 1437 -90 1398 -31 q 1475 -220 1475 -149 q 1403 -385 1475 -324 q 1203 -446 1332 -446 q 1002 -389 1070 -446 q 935 -233 935 -331 q 939 -193 935 -210 q 881 -250 916 -212 q 679 -403 776 -359 q 452 -446 582 -446 m 303 604 q 248 479 248 557 q 273 405 248 432 q 347 378 299 378 q 419 402 393 378 q 446 468 446 427 q 409 560 446 525 q 303 604 372 595 m 1140 -106 q 1096 -211 1096 -161 q 1122 -280 1096 -255 q 1196 -305 1149 -305 q 1272 -279 1244 -305 q 1299 -210 1299 -252 q 1261 -134 1299 -161 q 1152 -106 1223 -106 l 1140 -106 z "},"ஞ":{"ha":1889,"x_min":78,"x_max":1829,"o":"m 1186 0 l 1186 633 l 1008 633 q 825 610 888 633 q 721 548 762 587 q 661 449 681 508 q 813 482 733 482 q 995 418 928 482 q 1062 242 1062 353 q 988 52 1062 119 q 779 -16 914 -16 q 545 74 629 -16 q 460 327 460 163 q 507 547 460 456 q 636 690 553 637 q 811 761 718 742 q 1065 780 905 780 l 1592 780 l 1592 633 l 1391 633 l 1391 435 q 1535 466 1459 466 q 1751 378 1674 466 q 1829 130 1829 290 q 1728 -182 1829 -52 q 1437 -379 1628 -311 q 1007 -446 1246 -446 l 932 -446 q 466 -370 657 -446 q 176 -145 275 -293 q 78 205 78 3 l 78 231 q 127 511 78 366 q 270 796 176 656 l 429 699 q 313 470 353 593 q 272 231 272 347 l 272 216 q 441 -161 272 -28 q 937 -294 611 -294 l 984 -294 q 1454 -185 1283 -294 q 1624 123 1624 -76 q 1588 268 1624 217 q 1485 319 1552 319 q 1391 291 1436 319 l 1391 0 l 1186 0 m 641 298 q 681 170 644 215 q 777 125 717 125 q 845 154 820 125 q 870 232 870 182 q 840 313 870 283 q 762 343 810 343 q 641 298 701 343 z "},"ட":{"ha":1031,"x_min":111,"x_max":1008,"o":"m 1008 0 l 111 0 l 111 780 l 316 780 l 316 147 l 1008 147 l 1008 0 z "},"ண":{"ha":2546,"x_min":64,"x_max":2523,"o":"m 1965 260 q 1892 57 1965 131 q 1691 -16 1820 -16 q 1483 57 1556 -16 q 1411 260 1411 130 q 1447 439 1411 349 q 1552 607 1482 529 q 1462 636 1511 627 q 1357 646 1413 646 q 1249 636 1299 646 q 1156 605 1199 625 q 1270 445 1232 531 q 1308 260 1308 358 q 1235 57 1308 131 q 1034 -16 1162 -16 q 825 57 898 -16 q 753 260 753 130 q 787 438 753 354 q 890 597 821 523 q 777 634 838 622 q 645 646 715 646 q 411 595 509 646 q 271 452 313 543 q 417 482 340 482 q 598 418 530 482 q 665 241 665 354 q 592 51 665 119 q 382 -16 518 -16 q 148 74 232 -16 q 64 334 64 165 q 134 577 64 472 q 334 739 203 682 q 642 796 465 796 q 842 774 751 796 q 1018 705 932 751 q 1167 774 1085 751 q 1358 796 1250 796 q 1550 774 1476 796 q 1686 711 1624 752 q 1845 766 1758 751 q 2080 780 1933 780 l 2523 780 l 2523 633 l 2322 633 l 2322 0 l 2117 0 l 2117 633 l 2055 633 q 1899 627 1947 633 q 1820 609 1851 621 q 1929 446 1892 533 q 1965 260 1965 359 m 1683 512 q 1624 406 1645 469 q 1603 275 1603 342 q 1624 163 1603 201 q 1687 125 1645 125 q 1773 273 1773 125 q 1750 399 1773 336 q 1683 512 1727 462 m 1025 503 q 965 395 985 454 q 945 264 945 335 q 967 161 945 197 q 1029 125 989 125 q 1093 160 1071 125 q 1115 265 1115 196 q 1092 394 1115 335 q 1025 503 1069 454 m 245 299 q 286 170 250 215 q 381 125 321 125 q 449 153 424 125 q 474 232 474 182 q 444 313 474 283 q 366 343 414 343 q 245 299 306 343 z "},"த":{"ha":1270,"x_min":60,"x_max":1211,"o":"m 797 341 l 797 334 q 775 171 797 233 q 708 67 754 109 q 588 4 661 24 q 412 -16 515 -16 q 157 49 252 -16 q 63 229 63 114 q 98 349 63 298 q 204 432 134 400 l 204 780 l 1061 780 l 1061 633 l 797 633 l 797 480 q 1107 382 1004 469 q 1211 134 1211 296 q 1176 -17 1211 49 q 1067 -134 1141 -82 q 878 -210 994 -186 q 598 -233 763 -233 l 488 -233 q 355 -244 395 -233 q 290 -284 315 -254 q 264 -378 264 -314 q 268 -437 264 -406 l 68 -446 q 60 -327 60 -382 q 96 -198 60 -253 q 200 -114 133 -142 q 399 -86 268 -86 l 551 -86 q 825 -65 734 -86 q 962 11 915 -43 q 1010 151 1010 64 q 958 284 1010 237 q 797 341 905 332 m 387 476 q 511 482 450 482 l 599 482 l 599 633 l 387 633 l 387 476 m 599 344 l 495 344 q 318 318 373 344 q 264 231 264 292 q 308 157 264 183 q 427 131 351 131 q 559 180 520 131 q 599 330 599 229 l 599 344 z "},"ந":{"ha":1238,"x_min":56,"x_max":1178,"o":"m 111 780 l 930 780 l 930 633 l 730 633 l 730 467 q 884 503 802 503 q 1100 418 1021 503 q 1178 178 1178 332 q 1146 -1 1178 77 q 1048 -132 1115 -79 q 878 -209 981 -184 q 600 -233 774 -233 l 486 -233 q 351 -243 391 -233 q 286 -284 311 -254 q 261 -378 261 -314 q 264 -437 261 -406 l 64 -446 q 56 -327 56 -379 q 93 -198 56 -253 q 197 -114 130 -142 q 396 -86 265 -86 l 583 -86 q 831 -59 755 -86 q 942 23 906 -32 q 979 174 979 78 q 943 310 979 263 q 837 356 907 356 q 730 321 779 356 l 730 0 l 525 0 l 525 633 l 316 633 l 316 0 l 111 0 l 111 780 z "},"ன":{"ha":1888,"x_min":64,"x_max":1865,"o":"m 271 452 q 417 482 340 482 q 598 418 530 482 q 665 241 665 354 q 592 51 665 119 q 382 -16 518 -16 q 148 74 232 -16 q 64 334 64 165 q 134 578 64 473 q 335 740 204 683 q 641 796 465 796 q 1023 702 864 796 q 1186 763 1099 745 q 1419 780 1274 780 l 1865 780 l 1865 633 l 1664 633 l 1664 0 l 1459 0 l 1459 633 l 1397 633 q 1250 626 1305 633 q 1158 603 1195 619 q 1270 441 1233 527 q 1308 260 1308 355 q 1235 57 1308 131 q 1034 -16 1162 -16 q 826 57 899 -16 q 754 260 754 131 q 788 436 754 350 q 889 597 823 523 q 775 634 837 622 q 643 646 714 646 q 410 595 507 646 q 271 452 313 544 m 1023 506 q 965 403 985 463 q 945 275 945 342 q 966 163 945 201 q 1029 125 987 125 q 1115 273 1115 125 q 1091 398 1115 337 q 1023 506 1067 458 m 245 299 q 286 170 250 215 q 381 125 321 125 q 449 153 424 125 q 474 232 474 182 q 444 313 474 283 q 366 343 414 343 q 245 299 306 343 z "},"ப":{"ha":1154,"x_min":111,"x_max":1043,"o":"m 1043 780 l 1043 0 l 111 0 l 111 780 l 316 780 l 316 147 l 838 147 l 838 780 l 1043 780 z "},"ம":{"ha":1303,"x_min":111,"x_max":1230,"o":"m 111 0 l 111 780 l 316 780 l 316 147 l 573 147 l 573 493 q 607 671 573 608 q 706 765 641 734 q 865 796 772 796 q 1136 685 1041 796 q 1230 374 1230 574 q 1204 195 1230 262 q 1129 84 1179 127 q 1003 20 1080 41 q 769 0 926 0 l 111 0 m 778 147 l 831 147 q 983 196 941 147 q 1025 374 1025 245 q 988 579 1025 509 q 880 650 951 650 q 819 629 842 650 q 787 576 795 609 q 778 472 778 543 l 778 147 z "},"ய":{"ha":1440,"x_min":111,"x_max":1329,"o":"m 316 780 l 316 306 q 323 204 316 237 q 353 151 330 171 q 416 131 376 131 q 514 181 471 131 l 514 780 l 719 780 l 719 147 l 1124 147 l 1124 780 l 1329 780 l 1329 0 l 514 0 l 514 38 q 355 -16 444 -16 q 209 21 261 -16 q 134 120 157 59 q 111 281 111 181 l 111 780 l 316 780 z "},"ர":{"ha":962,"x_min":111,"x_max":939,"o":"m 111 780 l 939 780 l 939 633 l 739 633 l 739 0 l 429 -296 l 300 -176 l 534 45 l 534 633 l 316 633 l 316 0 l 111 0 l 111 780 m 330 -446 z "},"ற":{"ha":1354,"x_min":56,"x_max":1276,"o":"m 485 -233 q 351 -244 391 -233 q 286 -284 311 -254 q 261 -378 261 -314 q 264 -437 261 -420 l 64 -446 q 56 -327 56 -379 q 93 -198 56 -253 q 197 -114 130 -142 q 396 -86 264 -86 l 600 -86 q 897 -44 802 -86 q 1031 88 991 -1 q 1071 330 1071 177 q 1022 567 1071 486 q 884 649 973 649 q 795 623 829 649 q 748 555 762 597 q 734 430 734 513 l 734 0 l 529 0 l 529 428 q 505 601 529 553 q 427 649 480 649 q 342 610 368 649 q 316 453 316 571 l 316 0 l 111 0 l 111 460 q 142 650 111 580 q 237 758 173 720 q 395 796 301 796 q 537 768 483 796 q 635 677 591 741 q 751 768 689 741 q 898 796 812 796 q 1177 675 1078 796 q 1276 332 1276 554 q 1249 106 1276 203 q 1171 -56 1223 10 q 1044 -161 1118 -122 q 871 -216 970 -199 q 625 -233 772 -233 l 485 -233 z "},"ல":{"ha":1551,"x_min":64,"x_max":1478,"o":"m 264 449 q 417 482 337 482 q 599 418 532 482 q 666 242 666 353 q 592 52 666 119 q 382 -16 518 -16 q 148 76 231 -16 q 64 344 64 169 q 127 579 64 476 q 306 739 190 682 q 565 796 422 796 q 725 779 656 796 q 846 723 793 761 q 927 637 899 685 q 970 516 955 589 q 991 327 985 443 q 1031 174 997 216 q 1130 131 1066 131 q 1238 184 1204 131 q 1273 349 1273 237 q 1234 551 1273 445 q 1122 745 1194 656 l 1291 848 q 1478 357 1478 621 q 1386 82 1478 180 q 1124 -16 1295 -16 q 878 67 960 -16 q 785 323 795 151 q 768 469 779 414 q 733 562 758 523 q 663 623 708 600 q 547 646 618 646 q 370 594 444 646 q 264 449 296 543 m 245 298 q 286 170 250 216 q 381 125 321 125 q 449 154 424 125 q 474 232 474 182 q 444 313 474 283 q 366 343 414 343 q 245 298 307 343 z "},"ள":{"ha":1632,"x_min":64,"x_max":1609,"o":"m 790 533 q 533 646 683 646 q 368 594 439 646 q 265 450 296 542 q 417 482 336 482 q 599 418 532 482 q 666 242 666 353 q 592 52 666 119 q 382 -16 518 -16 q 148 76 231 -16 q 64 344 64 169 q 126 582 64 479 q 297 741 187 685 q 543 796 408 796 q 687 779 623 796 q 819 720 751 761 l 819 780 l 1609 780 l 1609 633 l 1409 633 l 1409 0 l 1204 0 l 1204 633 l 995 633 l 995 0 l 790 0 l 790 533 m 245 299 q 286 170 250 215 q 381 125 321 125 q 449 154 424 125 q 474 232 474 182 q 444 313 474 283 q 366 343 414 343 q 245 299 306 343 z "},"ழ":{"ha":1303,"x_min":67,"x_max":1230,"o":"m 826 -254 q 681 -399 777 -352 q 433 -446 586 -446 l 382 -446 q 216 -422 292 -446 q 104 -352 140 -398 q 67 -246 67 -306 q 133 -111 67 -160 q 317 -61 199 -61 q 429 -71 378 -61 l 419 -207 q 344 -203 392 -203 q 281 -215 304 -203 q 258 -248 258 -227 q 380 -303 258 -303 l 417 -303 q 558 -274 502 -303 q 650 -184 615 -245 q 573 0 576 -121 l 111 0 l 111 780 l 316 780 l 316 147 l 573 147 l 573 493 q 608 673 573 610 q 709 766 644 736 q 865 796 774 796 q 1136 685 1041 796 q 1230 374 1230 574 q 1205 197 1230 267 q 1127 82 1180 126 q 996 19 1074 37 q 772 0 919 0 q 783 -54 772 -31 q 814 -88 793 -77 q 857 -103 834 -99 q 926 -107 880 -107 l 1084 -107 l 1084 -254 l 826 -254 m 778 147 l 831 147 q 983 196 941 147 q 1025 374 1025 245 q 988 579 1025 509 q 880 650 951 650 q 819 629 842 650 q 787 576 795 609 q 778 472 778 543 l 778 147 z "},"வ":{"ha":1586,"x_min":64,"x_max":1475,"o":"m 264 449 q 417 482 337 482 q 599 418 532 482 q 666 242 666 353 q 592 52 666 119 q 382 -16 518 -16 q 148 76 231 -16 q 64 344 64 169 q 128 580 64 477 q 307 740 191 683 q 564 796 422 796 q 906 690 788 796 q 1025 394 1025 584 q 973 147 1025 275 l 1270 147 l 1270 780 l 1475 780 l 1475 0 l 762 0 l 758 113 q 820 371 820 231 q 749 574 820 502 q 549 646 678 646 q 370 594 444 646 q 264 449 296 543 m 245 299 q 286 170 250 215 q 381 125 321 125 q 449 154 424 125 q 474 232 474 182 q 444 313 474 283 q 366 343 414 343 q 245 299 306 343 z "},"ஶ":{"ha":1797,"x_min":111,"x_max":1686,"o":"m 1686 318 q 1666 163 1686 222 q 1601 62 1645 103 q 1491 3 1558 22 q 1335 -16 1425 -16 q 1135 19 1213 -16 q 1020 129 1057 55 q 984 327 984 203 l 984 633 l 813 633 l 813 320 q 803 201 813 250 q 770 114 793 153 q 711 48 748 76 q 614 2 674 20 q 462 -16 555 -16 q 258 22 336 -16 q 145 134 179 60 q 111 327 111 207 l 111 780 l 316 780 l 316 328 q 328 217 316 256 q 374 154 340 178 q 463 131 408 131 q 573 177 537 131 q 608 334 608 223 l 608 780 l 1686 780 l 1686 318 m 1481 633 l 1189 633 l 1189 328 q 1201 218 1189 257 q 1247 155 1213 178 q 1335 131 1280 131 q 1446 177 1411 131 q 1481 334 1481 224 l 1481 633 z "},"ஷ":{"ha":2123,"x_min":64,"x_max":2039,"o":"m 1391 0 l 762 0 l 758 113 q 820 371 820 231 q 749 574 820 502 q 549 646 678 646 q 370 594 444 646 q 264 449 296 543 q 417 482 337 482 q 599 418 532 482 q 666 242 666 353 q 592 52 666 119 q 382 -16 518 -16 q 148 76 231 -16 q 64 344 64 169 q 128 580 64 477 q 307 740 191 683 q 564 796 422 796 q 906 690 788 796 q 1025 394 1025 584 q 973 147 1025 275 l 1423 147 l 1453 261 q 1226 349 1304 277 q 1148 541 1148 420 q 1183 669 1148 610 q 1283 763 1218 729 q 1434 796 1348 796 q 1633 732 1565 796 q 1702 566 1702 668 q 1683 406 1702 491 q 1765 428 1725 412 q 1861 482 1804 444 l 2039 482 l 2039 0 l 1582 0 l 1482 -394 l 1297 -345 l 1391 0 m 1489 401 q 1510 558 1510 499 q 1435 652 1510 652 q 1361 620 1388 652 q 1333 532 1333 587 q 1372 441 1333 473 q 1489 401 1411 408 m 245 299 q 286 170 250 215 q 381 125 321 125 q 449 154 424 125 q 474 232 474 182 q 444 313 474 283 q 366 343 414 343 q 245 299 306 343 m 1866 325 q 1773 285 1828 301 q 1649 261 1719 269 l 1619 147 l 1863 147 l 1863 226 q 1866 325 1863 273 m 1347 -446 z "},"ஸ":{"ha":1973,"x_min":64,"x_max":1900,"o":"m 1712 848 q 1900 355 1900 621 q 1809 79 1900 174 q 1545 -16 1718 -16 q 1371 15 1444 -16 q 1254 123 1298 47 q 1211 356 1211 200 l 1211 423 q 1207 522 1211 482 q 1190 590 1203 561 q 1155 634 1177 620 q 1101 649 1134 649 q 1021 607 1046 649 q 995 475 995 564 l 995 0 l 790 0 l 790 362 q 762 532 790 477 q 682 617 734 588 q 549 646 629 646 q 371 593 448 646 q 264 449 294 541 q 417 482 336 482 q 599 418 532 482 q 666 242 666 353 q 592 52 666 119 q 382 -16 518 -16 q 148 76 231 -16 q 64 344 64 169 q 128 579 64 477 q 306 739 191 682 q 559 796 421 796 q 738 761 660 796 q 872 655 817 726 q 980 762 918 728 q 1128 796 1042 796 q 1300 751 1238 796 q 1389 634 1362 707 q 1415 440 1415 562 l 1415 328 q 1450 173 1415 216 q 1552 131 1485 131 q 1662 184 1629 131 q 1695 349 1695 238 q 1655 551 1695 446 q 1544 745 1615 656 l 1712 848 m 245 298 q 286 170 250 216 q 381 125 321 125 q 449 154 424 125 q 474 232 474 182 q 444 313 474 283 q 366 343 414 343 q 245 298 307 343 z "},"ஹ":{"ha":2472,"x_min":56,"x_max":2394,"o":"m 64 -446 q 56 -327 56 -379 q 93 -198 56 -253 q 197 -114 130 -142 q 396 -86 264 -86 l 1718 -86 q 2015 -44 1921 -86 q 2149 87 2109 -1 q 2189 330 2189 176 q 2140 567 2189 486 q 2002 649 2091 649 q 1913 623 1947 649 q 1866 555 1880 597 q 1852 430 1852 513 l 1852 0 l 1647 0 l 1647 428 q 1623 601 1647 553 q 1546 649 1598 649 q 1460 610 1486 649 q 1434 453 1434 571 l 1434 0 l 762 0 l 758 113 q 820 371 820 231 q 749 574 820 502 q 549 646 678 646 q 370 594 444 646 q 264 449 296 543 q 417 482 337 482 q 599 418 532 482 q 666 242 666 353 q 592 52 666 119 q 382 -16 518 -16 q 148 76 231 -16 q 64 344 64 169 q 128 580 64 477 q 307 740 191 683 q 564 796 422 796 q 906 690 788 796 q 1025 394 1025 584 q 973 147 1025 275 l 1230 147 l 1230 460 q 1260 650 1230 580 q 1355 758 1291 720 q 1514 796 1419 796 q 1655 768 1601 796 q 1754 677 1710 741 q 1869 768 1807 741 q 2016 796 1931 796 q 2295 675 2197 796 q 2394 332 2394 554 q 2367 106 2394 203 q 2289 -56 2341 10 q 2162 -161 2237 -122 q 1989 -216 2088 -199 q 1744 -233 1891 -233 l 485 -233 q 351 -244 391 -233 q 286 -284 311 -254 q 261 -378 261 -314 q 264 -437 261 -420 l 64 -446 m 245 299 q 286 170 250 215 q 381 125 321 125 q 449 154 424 125 q 474 232 474 182 q 444 313 474 283 q 366 343 414 343 q 245 299 306 343 z "},"ா":{"ha":962,"x_min":111,"x_max":939,"o":"m 111 780 l 939 780 l 939 633 l 739 633 l 739 0 l 534 0 l 534 633 l 316 633 l 316 0 l 111 0 l 111 780 z "},"ி":{"ha":427,"x_min":-466,"x_max":316,"o":"m -426 715 q -455 796 -445 751 q -466 884 -466 842 q -420 1043 -466 975 q -293 1146 -375 1110 q -113 1181 -211 1181 q 121 1131 24 1181 q 267 975 218 1080 q 316 684 316 870 l 316 0 l 111 0 l 111 597 q 89 870 111 790 q 16 994 66 951 q -109 1037 -35 1037 q -229 995 -186 1037 q -271 886 -271 954 q -224 715 -271 802 l -426 715 m -228 780 z "},"ீ":{"ha":0,"x_min":-677,"x_max":12,"o":"m -644 716 q -677 873 -677 783 q -628 1031 -677 960 q -489 1142 -580 1103 q -272 1181 -397 1181 q -61 1131 -134 1181 q 12 986 12 1080 q -46 853 12 901 q -212 805 -104 805 q -377 851 -321 805 q -433 983 -433 897 q -431 1011 -433 992 q -490 947 -470 986 q -511 861 -511 908 q -484 744 -511 804 l -644 716 m -280 1051 q -295 990 -295 1022 q -277 938 -295 956 q -220 921 -259 921 q -169 938 -187 921 q -151 985 -151 956 q -178 1035 -151 1019 q -267 1051 -205 1051 l -280 1051 m -214 780 z "},"ு":{"ha":770,"x_min":-326,"x_max":724,"o":"m -326 780 l 375 780 q 585 750 513 780 q 690 666 656 720 q 724 535 724 612 q 646 354 724 420 q 425 287 568 287 q 198 363 277 287 q 120 565 120 439 q 122 633 120 604 l -326 633 l -326 780 m 315 633 q 312 573 312 606 q 342 465 312 501 q 428 428 373 428 q 505 454 478 428 q 532 519 532 481 q 493 607 532 582 q 353 633 454 633 l 315 633 z "},"ூ":{"ha":1265,"x_min":-326,"x_max":1200,"o":"m -326 780 l 174 780 q 359 1037 222 943 q 681 1131 495 1131 q 959 1062 842 1131 q 1138 866 1076 993 q 1200 584 1200 740 q 1045 135 1200 286 q 582 -16 889 -16 q 335 20 463 -16 q 115 117 208 56 l 203 258 q 396 164 302 193 q 595 135 490 135 q 897 247 798 135 q 996 583 996 358 q 911 874 996 767 q 673 981 827 981 q 486 927 567 981 q 367 780 404 874 l 450 780 q 677 717 597 780 q 758 535 758 654 q 682 354 758 421 q 464 287 606 287 q 235 373 315 287 q 155 607 155 460 l 155 633 l -326 633 l -326 780 m 347 633 l 346 614 q 467 428 339 428 q 541 454 515 428 q 566 519 566 480 q 526 606 566 580 q 387 633 486 633 l 347 633 m 682 1181 z "},"ெ":{"ha":1370,"x_min":76,"x_max":1259,"o":"m 365 197 q 355 271 355 233 q 430 452 355 382 q 633 522 506 522 q 845 449 768 522 q 922 254 922 376 q 831 54 922 125 q 570 -16 739 -16 q 310 49 421 -16 q 137 238 198 114 q 76 528 76 362 q 160 868 76 720 q 397 1099 244 1017 q 736 1181 550 1181 q 982 1143 889 1181 q 1137 1043 1075 1105 q 1229 878 1199 981 q 1259 614 1259 774 l 1259 0 l 1054 0 l 1054 545 q 1033 790 1054 701 q 974 929 1013 879 q 877 1005 935 979 q 724 1030 820 1030 q 500 970 607 1030 q 331 795 393 910 q 270 526 270 681 q 295 334 270 418 q 365 197 319 250 m 562 125 l 578 125 q 693 158 656 121 q 730 260 730 195 q 704 346 730 311 q 629 381 677 381 q 554 349 583 381 q 525 261 525 316 q 562 125 525 186 z "},"ே":{"ha":1101,"x_min":76,"x_max":1061,"o":"m 507 163 q 490 271 490 205 q 563 452 490 382 q 762 522 636 522 q 969 449 895 522 q 1044 254 1044 375 q 947 56 1044 128 q 680 -16 850 -16 q 363 56 502 -16 q 151 264 225 129 q 76 583 76 400 q 158 896 76 760 q 389 1106 240 1031 q 720 1181 538 1181 q 972 1113 884 1181 q 1061 918 1061 1044 q 985 730 1061 803 q 779 657 909 657 q 581 724 654 657 q 507 900 507 791 q 526 1004 507 960 q 338 843 406 955 q 270 578 270 731 q 332 322 270 429 q 507 163 393 214 m 713 1040 q 677 912 677 981 q 703 828 677 858 q 774 798 729 798 q 844 828 819 798 q 869 912 869 858 q 834 1006 869 972 q 732 1040 800 1040 l 723 1040 q 713 1040 719 1040 m 703 125 q 815 157 777 125 q 852 260 852 190 q 827 349 852 316 q 758 381 802 381 q 688 349 715 381 q 661 261 661 316 q 698 125 661 186 l 703 125 z "},"ை":{"ha":1788,"x_min":64,"x_max":1715,"o":"m 271 452 q 417 482 340 482 q 598 418 530 482 q 665 241 665 354 q 592 51 665 119 q 382 -16 518 -16 q 148 74 232 -16 q 64 334 64 165 q 134 578 64 473 q 335 740 204 683 q 641 796 465 796 q 839 774 749 796 q 1009 709 928 753 q 1292 796 1137 796 q 1606 689 1497 796 q 1715 392 1715 581 q 1683 179 1715 286 q 1592 -16 1650 73 l 1422 66 q 1510 379 1510 205 q 1446 577 1510 506 q 1267 649 1381 649 q 1140 621 1190 649 q 1265 454 1223 544 q 1308 260 1308 363 q 1235 57 1308 131 q 1034 -16 1162 -16 q 826 57 899 -16 q 754 260 754 131 q 787 437 754 352 q 884 601 819 522 q 773 635 833 623 q 645 646 713 646 q 411 595 509 646 q 271 452 313 543 m 1017 513 q 963 401 981 463 q 945 264 945 338 q 967 161 945 197 q 1029 125 989 125 q 1093 160 1072 125 q 1115 265 1115 196 q 1090 401 1115 339 q 1017 513 1065 463 m 245 299 q 286 170 250 215 q 381 125 321 125 q 449 153 424 125 q 474 232 474 182 q 444 313 474 283 q 366 343 414 343 q 245 299 306 343 z "},"ொ":{"ha":2613,"x_min":76,"x_max":2590,"o":"m 365 197 q 355 271 355 233 q 430 452 355 382 q 633 522 506 522 q 845 449 768 522 q 922 254 922 376 q 831 54 922 125 q 570 -16 739 -16 q 310 49 421 -16 q 137 238 198 114 q 76 528 76 362 q 160 868 76 720 q 397 1099 244 1017 q 736 1181 550 1181 q 982 1143 889 1181 q 1137 1043 1075 1105 q 1229 878 1199 981 q 1259 614 1259 774 l 1259 0 l 1054 0 l 1054 545 q 1033 790 1054 701 q 974 929 1013 879 q 877 1005 935 979 q 724 1030 820 1030 q 500 970 607 1030 q 331 795 393 910 q 270 526 270 681 q 295 334 270 418 q 365 197 319 250 m 562 125 l 578 125 q 693 158 656 121 q 730 260 730 195 q 704 346 730 311 q 629 381 677 381 q 554 349 583 381 q 525 261 525 316 q 562 125 525 186 m 1511 619 q 1591 587 1559 619 q 1623 505 1623 554 q 1591 424 1623 456 q 1511 391 1559 391 q 1431 424 1463 391 q 1399 505 1399 456 q 1431 587 1399 554 q 1511 619 1463 619 m 1514 652 m 1514 251 m 1762 780 l 2590 780 l 2590 633 l 2389 633 l 2389 0 l 2184 0 l 2184 633 l 1967 633 l 1967 0 l 1762 0 l 1762 780 z "},"ோ":{"ha":2330,"x_min":76,"x_max":2307,"o":"m 507 163 q 490 271 490 205 q 563 452 490 382 q 762 522 636 522 q 969 449 895 522 q 1044 254 1044 375 q 947 56 1044 128 q 680 -16 850 -16 q 363 56 502 -16 q 151 264 225 129 q 76 583 76 400 q 158 896 76 760 q 389 1106 240 1031 q 720 1181 538 1181 q 972 1113 884 1181 q 1061 918 1061 1044 q 985 730 1061 803 q 779 657 909 657 q 581 724 654 657 q 507 900 507 791 q 526 1004 507 960 q 338 843 406 955 q 270 578 270 731 q 332 322 270 429 q 507 163 393 214 m 713 1040 q 677 912 677 981 q 703 828 677 858 q 774 798 729 798 q 844 828 819 798 q 869 912 869 858 q 834 1006 869 972 q 732 1040 800 1040 l 723 1040 q 713 1040 719 1040 m 703 125 q 815 157 777 125 q 852 260 852 190 q 827 349 852 316 q 758 381 802 381 q 688 349 715 381 q 661 261 661 316 q 698 125 661 186 l 703 125 m 1235 619 q 1315 587 1283 619 q 1347 505 1347 554 q 1315 424 1347 456 q 1235 391 1283 391 q 1155 424 1187 391 q 1123 505 1123 456 q 1155 587 1123 554 q 1235 619 1187 619 m 1238 652 m 1238 251 m 1479 780 l 2307 780 l 2307 633 l 2106 633 l 2106 0 l 1902 0 l 1902 633 l 1684 633 l 1684 0 l 1479 0 l 1479 780 z "},"ௌ":{"ha":3300,"x_min":76,"x_max":3277,"o":"m 365 197 q 355 271 355 233 q 430 452 355 382 q 633 522 506 522 q 845 449 768 522 q 922 254 922 376 q 831 54 922 125 q 570 -16 739 -16 q 310 49 421 -16 q 137 238 198 114 q 76 528 76 362 q 160 868 76 720 q 397 1099 244 1017 q 736 1181 550 1181 q 982 1143 889 1181 q 1137 1043 1075 1105 q 1229 878 1199 981 q 1259 614 1259 774 l 1259 0 l 1054 0 l 1054 545 q 1033 790 1054 701 q 974 929 1013 879 q 877 1005 935 979 q 724 1030 820 1030 q 500 970 607 1030 q 331 795 393 910 q 270 526 270 681 q 295 334 270 418 q 365 197 319 250 m 562 125 l 578 125 q 693 158 656 121 q 730 260 730 195 q 704 346 730 311 q 629 381 677 381 q 554 349 583 381 q 525 261 525 316 q 562 125 525 186 m 1511 619 q 1591 587 1559 619 q 1623 505 1623 554 q 1591 424 1623 456 q 1511 391 1559 391 q 1431 424 1463 391 q 1399 505 1399 456 q 1431 587 1399 554 q 1511 619 1463 619 m 1514 652 m 1514 251 m 2458 533 q 2201 646 2351 646 q 2035 594 2106 646 q 1933 450 1964 542 q 2085 482 2004 482 q 2266 418 2199 482 q 2334 242 2334 353 q 2260 52 2334 119 q 2050 -16 2186 -16 q 1815 76 1898 -16 q 1732 344 1732 169 q 1793 582 1732 479 q 1965 741 1855 685 q 2210 796 2075 796 q 2355 779 2290 796 q 2487 720 2419 761 l 2487 780 l 3277 780 l 3277 633 l 3076 633 l 3076 0 l 2871 0 l 2871 633 l 2662 633 l 2662 0 l 2458 0 l 2458 533 m 1913 299 q 1953 170 1918 215 q 2049 125 1989 125 q 2117 154 2091 125 q 2142 232 2142 182 q 2111 313 2142 283 q 2033 343 2081 343 q 1913 299 1973 343 z "},"்":{"ha":0,"x_min":-498,"x_max":-275,"o":"m -387 1148 q -307 1116 -338 1148 q -275 1034 -275 1083 q -307 953 -275 985 q -387 920 -338 920 q -467 953 -435 920 q -498 1034 -498 985 q -467 1116 -498 1083 q -387 1148 -435 1148 m -383 1181 m -384 780 z "},"ௐ":{"ha":1770,"x_min":56,"x_max":1714,"o":"m 1070 -75 q 943 47 985 -26 q 901 222 901 120 q 943 381 901 304 q 1064 501 985 457 q 1249 545 1143 545 q 1355 528 1309 545 q 1315 357 1315 439 q 1341 272 1315 302 q 1418 241 1367 241 q 1491 275 1466 241 q 1516 369 1516 308 q 1439 533 1516 461 q 1218 644 1362 604 q 884 683 1074 683 q 513 646 673 683 q 278 545 353 610 q 400 573 333 573 q 571 514 507 573 q 635 353 635 455 q 563 172 635 235 q 353 110 490 110 q 139 190 221 110 q 56 399 56 269 q 269 715 56 601 q 863 830 482 830 q 1314 782 1136 830 q 1603 633 1493 734 q 1714 376 1714 533 q 1679 234 1714 298 q 1577 135 1645 170 q 1413 100 1509 100 q 1221 157 1291 100 q 1152 313 1152 214 q 1166 395 1152 355 q 1101 321 1123 364 q 1078 229 1078 278 q 1100 127 1078 169 q 1166 56 1122 85 q 1266 17 1211 27 q 1419 6 1322 6 l 1576 6 l 1576 -141 l 1271 -141 q 1175 -276 1228 -220 q 1052 -370 1121 -333 q 883 -427 983 -408 q 610 -446 783 -446 l 596 -446 q 242 -380 360 -446 q 124 -177 124 -313 q 196 41 124 -66 l 348 -28 q 318 -93 329 -62 q 307 -153 307 -123 q 376 -266 307 -229 q 590 -303 445 -303 q 836 -281 756 -303 q 968 -212 915 -260 q 1070 -75 1021 -164 m 234 400 l 234 398 q 266 288 234 326 q 359 251 298 251 q 433 278 407 251 q 459 353 459 304 q 431 422 459 396 q 357 448 404 448 q 234 400 292 448 m 831 243 q 809 188 831 210 q 753 165 786 165 q 699 188 721 165 q 677 243 677 210 q 699 298 677 275 q 753 320 721 320 q 809 298 787 320 q 831 243 831 276 m 406 -216 l 406 75 l 518 75 l 518 -134 l 606 -134 l 606 -20 q 623 59 606 33 q 669 98 641 85 q 738 111 697 111 q 867 57 819 111 q 916 -73 916 4 q 895 -154 916 -121 q 833 -202 874 -188 q 709 -216 792 -216 l 406 -216 m 717 -134 l 748 -134 q 791 -119 779 -134 q 804 -66 804 -103 q 787 3 804 -24 q 745 29 770 29 q 717 -4 717 29 l 717 -134 z "},"ௗ":{"ha":1632,"x_min":64,"x_max":1609,"o":"m 790 533 q 533 646 683 646 q 368 594 439 646 q 265 450 296 542 q 417 482 336 482 q 599 418 532 482 q 666 242 666 353 q 592 52 666 119 q 382 -16 518 -16 q 148 76 231 -16 q 64 344 64 169 q 126 582 64 479 q 297 741 187 685 q 543 796 408 796 q 687 779 623 796 q 819 720 751 761 l 819 780 l 1609 780 l 1609 633 l 1409 633 l 1409 0 l 1204 0 l 1204 633 l 995 633 l 995 0 l 790 0 l 790 533 m 245 299 q 286 170 250 215 q 381 125 321 125 q 449 154 424 125 q 474 232 474 182 q 444 313 474 283 q 366 343 414 343 q 245 299 306 343 z "},"௦":{"ha":936,"x_min":64,"x_max":871,"o":"m 64 392 q 115 605 64 513 q 257 746 165 696 q 469 796 349 796 q 684 745 593 796 q 823 602 774 694 q 871 392 871 509 q 764 94 871 203 q 471 -16 656 -16 q 173 94 282 -16 q 64 392 64 204 m 269 390 q 322 199 269 267 q 467 131 374 131 q 614 199 562 131 q 667 390 667 267 q 614 581 667 512 q 469 649 562 649 q 322 581 374 649 q 269 390 269 513 z "},"௧":{"ha":1270,"x_min":60,"x_max":1211,"o":"m 793 344 l 793 334 q 772 171 793 233 q 704 67 751 109 q 585 4 658 24 q 408 -16 512 -16 q 155 49 250 -16 q 60 229 60 115 q 95 349 60 298 q 201 432 130 400 l 201 780 l 1057 780 l 1057 633 l 793 633 l 793 482 l 795 482 q 979 469 909 482 q 1103 422 1049 456 q 1184 338 1158 389 q 1211 224 1211 288 q 1139 47 1211 111 q 937 -16 1067 -16 q 783 -1 843 -16 l 817 142 q 898 134 853 134 q 1017 234 1017 134 q 967 316 1017 289 q 793 344 917 343 m 384 476 q 507 482 447 482 l 595 482 l 595 633 l 384 633 l 384 476 m 595 344 l 492 344 q 315 318 370 344 q 260 231 260 292 q 304 157 260 183 q 422 131 348 131 q 556 180 517 131 q 595 330 595 229 l 595 344 z "},"௨":{"ha":1511,"x_min":68,"x_max":1488,"o":"m 182 298 q 105 399 131 347 q 79 511 79 452 q 127 655 79 590 q 267 758 174 720 q 484 796 359 796 q 811 717 698 796 q 924 503 924 637 q 819 298 924 372 q 479 204 715 224 l 314 190 q 260 166 260 185 q 272 151 260 155 q 310 147 283 147 l 1488 147 l 1488 0 l 302 0 q 128 39 187 0 q 68 151 68 77 q 97 240 68 203 q 182 298 125 277 m 374 329 l 412 332 q 590 361 526 342 q 687 411 655 380 q 719 497 719 442 q 655 607 719 567 q 482 646 592 646 q 329 607 385 646 q 273 503 273 568 q 374 329 273 407 z "},"௩":{"ha":1520,"x_min":111,"x_max":1497,"o":"m 1497 0 l 519 0 l 519 147 l 909 147 q 938 196 927 167 q 948 254 948 224 q 848 356 948 356 q 724 310 788 356 l 724 222 l 519 222 l 519 633 l 316 633 l 316 0 l 111 0 l 111 780 l 1017 780 l 1017 633 l 724 633 l 724 453 q 900 503 802 503 q 1086 444 1021 503 q 1151 288 1151 385 q 1109 147 1151 207 l 1497 147 l 1497 0 z "},"௪":{"ha":1462,"x_min":60,"x_max":1367,"o":"m 793 344 l 793 334 q 772 171 793 233 q 704 67 751 109 q 585 4 658 24 q 408 -16 512 -16 q 155 49 250 -16 q 60 229 60 115 q 95 349 60 298 q 201 432 130 400 l 201 780 l 1030 780 l 1030 633 l 793 633 l 793 482 l 1162 482 l 1162 780 l 1367 780 l 1367 344 l 793 344 m 384 476 q 507 482 447 482 l 595 482 l 595 633 l 384 633 l 384 476 m 595 344 l 492 344 q 315 318 370 344 q 260 231 260 292 q 304 157 260 183 q 422 131 348 131 q 556 180 517 131 q 595 330 595 229 l 595 344 z "},"௫":{"ha":1648,"x_min":81,"x_max":1588,"o":"m 532 780 l 1351 780 l 1351 633 l 1150 633 l 1150 435 q 1295 466 1217 466 q 1509 379 1430 466 q 1588 132 1588 292 q 1503 -178 1588 -49 q 1253 -376 1417 -307 q 880 -446 1088 -446 q 451 -352 631 -446 q 176 -80 271 -258 q 81 337 81 99 l 81 375 q 179 791 81 604 q 460 1080 276 979 q 902 1181 645 1181 q 1203 1147 1061 1181 q 1523 1022 1344 1112 l 1449 861 q 1153 991 1272 957 q 910 1025 1034 1025 q 452 860 616 1025 q 287 389 287 694 l 287 324 q 438 -133 287 28 q 869 -295 589 -295 l 881 -295 q 1253 -186 1122 -295 q 1383 126 1383 -78 q 1348 271 1383 222 q 1244 319 1312 319 q 1150 291 1197 319 l 1150 0 l 945 0 l 945 633 l 736 633 l 736 0 l 532 0 l 532 780 z "},"௬":{"ha":1577,"x_min":60,"x_max":1544,"o":"m 793 344 l 793 334 q 772 171 793 233 q 704 67 751 109 q 585 4 658 24 q 408 -16 512 -16 q 155 49 250 -16 q 60 229 60 115 q 95 349 60 298 q 201 432 130 400 l 201 780 l 1057 780 l 1057 633 l 793 633 l 793 482 l 1544 482 l 1544 344 l 1431 344 l 1431 0 l 1247 0 l 1247 344 l 1109 344 l 1109 0 l 925 0 l 925 344 l 793 344 m 384 476 q 507 482 447 482 l 595 482 l 595 633 l 384 633 l 384 476 m 595 344 l 492 344 q 315 318 370 344 q 260 231 260 292 q 304 157 260 183 q 422 131 348 131 q 556 180 517 131 q 595 330 595 229 l 595 344 z "},"௭":{"ha":1219,"x_min":64,"x_max":1196,"o":"m 790 0 l 790 633 l 612 633 q 429 610 492 633 q 325 548 366 587 q 264 449 285 508 q 417 482 337 482 q 599 418 532 482 q 666 242 666 353 q 592 52 666 119 q 382 -16 518 -16 q 149 74 233 -16 q 64 327 64 163 q 111 547 64 456 q 240 690 157 637 q 415 761 322 742 q 669 780 509 780 l 1196 780 l 1196 633 l 995 633 l 995 0 l 790 0 m 245 298 q 284 170 248 215 q 381 125 321 125 q 449 154 424 125 q 474 232 474 182 q 444 313 474 283 q 366 343 414 343 q 245 298 305 343 z "},"௮":{"ha":1694,"x_min":35,"x_max":1583,"o":"m 1583 -214 l 1378 -214 l 1378 121 l 1187 121 q 930 -113 1107 -30 q 513 -195 752 -195 l 488 -195 q 156 -118 276 -195 q 35 88 35 -41 q 59 179 35 138 q 137 243 83 220 q 315 267 192 267 l 503 267 q 408 503 408 376 q 504 718 408 639 q 769 796 600 796 q 1015 738 911 796 q 1172 575 1118 680 q 1225 343 1225 470 q 1221 267 1225 302 l 1378 267 l 1378 780 l 1583 780 l 1583 -214 m 741 267 l 1028 267 q 1031 340 1031 286 q 959 560 1031 475 q 767 646 886 646 q 644 607 687 646 q 601 495 601 568 q 638 374 601 435 q 741 267 676 313 m 530 -48 q 801 -6 689 -48 q 975 121 912 36 l 368 121 q 279 117 302 121 q 245 101 257 113 q 233 68 233 89 q 304 -18 233 12 q 513 -48 376 -48 l 530 -48 m 330 -446 z "},"௯":{"ha":1887,"x_min":60,"x_max":1827,"o":"m 1565 77 q 1634 277 1634 176 q 1576 418 1634 365 q 1423 471 1518 471 q 1351 466 1384 471 q 1291 454 1318 462 q 1438 366 1389 427 q 1487 212 1487 305 q 1420 46 1487 109 q 1242 -16 1354 -16 q 1037 50 1117 -16 q 958 235 958 117 q 977 344 958 289 l 793 344 l 793 334 q 772 171 793 233 q 704 67 751 109 q 585 4 658 24 q 408 -16 512 -16 q 155 49 250 -16 q 60 229 60 115 q 95 349 60 298 q 201 432 130 400 l 201 780 l 1057 780 l 1057 633 l 793 633 l 793 482 l 1063 482 q 1223 578 1128 545 q 1434 612 1318 612 q 1646 572 1558 612 q 1781 458 1735 533 q 1827 288 1827 384 q 1729 -16 1827 138 l 1565 77 m 384 476 q 507 482 447 482 l 595 482 l 595 633 l 384 633 l 384 476 m 595 344 l 492 344 q 315 318 370 344 q 260 231 260 292 q 304 157 260 183 q 422 131 348 131 q 556 180 517 131 q 595 330 595 229 l 595 344 m 1160 340 q 1136 241 1136 293 q 1162 154 1136 184 q 1234 123 1189 123 q 1289 142 1270 123 q 1309 198 1309 162 q 1271 297 1309 263 q 1160 340 1234 332 z "},"௰":{"ha":1354,"x_min":111,"x_max":1272,"o":"m 449 1107 q 629 1167 559 1153 q 782 1181 700 1181 q 1144 1020 1017 1181 q 1272 555 1272 858 l 1272 532 q 1174 130 1272 275 q 898 -16 1076 -16 q 751 12 812 -16 q 635 104 689 40 q 538 13 593 41 q 395 -16 484 -16 q 237 23 301 -16 q 142 131 172 61 q 111 321 111 201 l 111 780 l 316 780 l 316 328 q 342 171 316 210 q 427 132 368 132 q 505 179 480 132 q 529 353 529 227 l 529 780 l 734 780 l 734 351 q 747 226 734 268 q 794 158 761 184 q 878 132 827 132 q 1020 233 974 132 q 1065 539 1065 335 q 992 908 1065 786 q 768 1029 918 1029 q 637 1012 700 1029 q 506 958 574 995 l 449 1107 z "},"௱":{"ha":1356,"x_min":111,"x_max":1333,"o":"m 514 599 q 416 650 471 650 q 354 630 376 650 q 324 579 332 611 q 316 475 316 547 l 316 0 l 111 0 l 111 500 q 134 661 111 600 q 209 759 157 722 q 355 797 261 797 q 514 742 445 797 l 514 780 l 1333 780 l 1333 633 l 1133 633 l 1133 0 l 928 0 l 928 633 l 719 633 l 719 0 l 514 0 l 514 599 z "},"௲":{"ha":1528,"x_min":56,"x_max":1514,"o":"m 935 0 l 935 344 l 793 344 l 793 334 q 772 171 793 233 q 704 67 751 109 q 585 4 658 24 q 408 -16 512 -16 q 155 49 250 -16 q 60 229 60 115 q 95 349 60 298 q 201 432 130 400 l 201 780 l 1057 780 l 1057 633 l 793 633 l 793 482 l 1295 482 l 1295 344 l 1122 344 l 1122 231 q 1282 270 1194 270 q 1450 208 1385 270 q 1514 52 1514 146 q 1486 -79 1514 -25 q 1401 -170 1457 -133 q 1275 -220 1345 -207 q 1101 -233 1205 -233 l 486 -233 q 351 -243 391 -233 q 286 -284 311 -254 q 261 -378 261 -314 q 264 -437 261 -406 l 64 -446 q 56 -327 56 -379 q 93 -198 56 -253 q 197 -114 130 -142 q 396 -86 265 -86 l 1083 -86 q 1274 -55 1223 -86 q 1326 38 1326 -24 q 1302 103 1326 79 q 1236 127 1278 127 q 1122 91 1175 127 l 1122 0 l 935 0 m 384 476 q 507 482 447 482 l 595 482 l 595 633 l 384 633 l 384 476 m 595 344 l 492 344 q 315 318 370 344 q 260 231 260 292 q 304 157 260 183 q 422 131 348 131 q 556 180 517 131 q 595 330 595 229 l 595 344 z "},"௳":{"ha":1518,"x_min":64,"x_max":1495,"o":"m 264 449 q 417 482 337 482 q 599 418 532 482 q 666 242 666 353 q 592 52 666 119 q 382 -16 518 -16 q 148 76 231 -16 q 64 344 64 169 q 128 580 64 477 q 307 740 191 683 q 564 796 422 796 q 906 690 788 796 q 1025 394 1025 584 q 973 147 1025 275 l 1495 147 l 1495 0 l 762 0 l 758 113 q 820 371 820 231 q 749 574 820 502 q 549 646 678 646 q 370 594 444 646 q 264 449 296 543 m 245 299 q 286 170 250 215 q 381 125 321 125 q 449 154 424 125 q 474 232 474 182 q 444 313 474 283 q 366 343 414 343 q 245 299 306 343 z "},"௴":{"ha":1921,"x_min":111,"x_max":1898,"o":"m 316 147 l 573 147 l 573 493 q 607 671 573 608 q 706 765 641 734 q 865 796 772 796 q 892 795 879 796 q 963 935 901 881 q 1128 999 1025 989 q 1249 1134 1167 1086 q 1441 1181 1331 1181 q 1664 1114 1584 1181 q 1743 928 1743 1046 q 1719 802 1743 861 l 1898 802 l 1898 677 l 1547 677 l 1547 751 q 1589 897 1589 819 q 1547 1016 1589 975 q 1424 1056 1506 1056 q 1286 1001 1340 1056 q 1440 956 1392 1000 q 1488 837 1488 911 q 1440 715 1488 758 q 1308 672 1392 672 q 1159 726 1214 672 q 1103 875 1104 779 q 1039 763 1039 852 l 1039 760 q 1181 615 1132 714 q 1230 374 1230 516 q 1204 195 1230 262 q 1129 84 1179 127 q 1003 20 1080 41 q 769 0 926 0 l 111 0 l 111 780 l 316 780 l 316 147 m 1240 884 l 1240 863 q 1258 804 1240 825 q 1310 784 1276 784 q 1347 796 1332 784 q 1362 830 1362 808 q 1343 868 1362 852 q 1270 884 1324 884 l 1240 884 m 831 147 q 983 196 941 147 q 1025 374 1025 245 q 988 579 1025 509 q 880 650 951 650 q 819 629 842 650 q 787 576 795 609 q 778 472 778 543 l 778 147 l 831 147 z "},"௵":{"ha":3534,"x_min":78,"x_max":3461,"o":"m 3105 745 l 3274 848 q 3461 357 3461 621 q 3370 80 3461 177 q 3105 -16 3279 -16 q 2925 22 2989 -16 q 2825 133 2861 61 q 2772 340 2789 204 q 2714 604 2751 509 q 2630 751 2683 686 q 2492 869 2576 815 q 2299 951 2414 918 q 1969 1011 2161 992 q 1514 1029 1777 1029 q 582 869 882 1029 q 281 371 281 708 q 559 -129 281 37 q 1425 -295 836 -295 l 1516 -295 q 2011 -245 1799 -295 q 2334 -99 2224 -196 q 2444 137 2444 -1 q 2410 272 2444 226 q 2313 319 2376 319 q 2224 291 2268 319 l 2224 0 l 2020 0 l 2020 633 l 1819 633 l 1819 0 l 1171 0 l 1166 113 q 1229 371 1229 231 q 1158 574 1229 502 q 958 646 1087 646 q 779 594 853 646 q 673 449 705 543 q 826 482 746 482 q 1008 418 941 482 q 1075 242 1075 353 q 1001 52 1075 119 q 791 -16 927 -16 q 556 76 640 -16 q 473 344 473 169 q 537 580 473 477 q 716 740 600 683 q 972 796 831 796 q 1315 690 1197 796 q 1434 394 1434 584 q 1382 147 1434 275 l 1614 147 l 1614 780 l 2425 780 l 2425 633 l 2224 633 l 2224 435 q 2364 466 2289 466 q 2572 378 2494 466 q 2649 137 2649 291 q 2519 -181 2649 -51 q 2139 -379 2389 -312 q 1563 -446 1888 -446 l 1382 -446 q 404 -244 729 -446 q 78 359 78 -41 l 78 372 q 430 977 78 772 q 1468 1181 783 1181 l 1563 1181 q 2000 1164 1826 1181 q 2416 1082 2243 1141 q 2712 920 2588 1022 q 2885 703 2824 827 q 2966 378 2946 578 q 2992 227 2976 277 q 3035 154 3007 177 q 3113 131 3063 131 q 3221 184 3187 131 q 3256 348 3256 237 q 3217 551 3256 445 q 3105 745 3177 656 m 654 299 q 695 170 659 215 q 790 125 730 125 q 858 154 833 125 q 883 232 883 182 q 853 313 883 283 q 774 343 823 343 q 654 299 715 343 z "},"௶":{"ha":1339,"x_min":45,"x_max":1227,"o":"m 836 22 q 827 -86 836 -35 l 1023 -86 l 1023 467 l 1227 467 l 1227 -233 l 786 -233 q 622 -392 732 -337 q 359 -446 511 -446 q 204 -417 279 -446 q 87 -337 129 -389 q 45 -218 45 -285 q 70 -139 45 -169 q 133 -98 94 -110 q 265 -86 172 -86 l 626 -86 q 631 11 631 -47 l 631 38 q 472 -16 560 -16 q 326 21 378 -16 q 251 120 274 59 q 228 281 228 181 l 228 780 l 433 780 l 433 306 q 440 204 433 237 q 470 151 447 171 q 533 131 492 131 q 631 181 588 131 l 631 780 l 836 780 l 836 22 m 586 -221 l 284 -221 q 241 -227 252 -221 q 231 -244 231 -232 q 267 -290 231 -271 q 357 -309 303 -309 q 496 -287 439 -309 q 586 -221 553 -264 z "},"௷":{"ha":2105,"x_min":64,"x_max":2021,"o":"m 1196 633 l 995 633 l 995 323 l 1111 323 q 1232 457 1150 410 q 1423 504 1313 504 q 1645 436 1566 504 q 1725 250 1725 369 q 1701 124 1725 184 l 1874 124 l 1874 496 l 2021 496 l 2021 0 l 1529 0 l 1529 73 q 1571 219 1571 142 q 1529 338 1571 298 q 1406 378 1487 378 q 1267 323 1322 378 q 1421 278 1373 323 q 1470 159 1470 233 q 1421 37 1470 80 q 1290 -5 1373 -5 q 1140 49 1195 -5 q 1085 200 1085 104 l 1085 206 l 995 206 l 995 0 l 790 0 l 790 633 l 612 633 q 429 610 492 633 q 325 548 366 587 q 264 449 285 508 q 417 482 337 482 q 599 418 532 482 q 666 242 666 353 q 592 52 666 119 q 382 -16 518 -16 q 149 74 233 -16 q 64 327 64 163 q 111 547 64 456 q 240 690 157 637 q 415 761 322 742 q 669 780 509 780 l 1196 780 l 1196 633 m 245 298 q 284 170 248 215 q 381 125 321 125 q 449 154 424 125 q 474 232 474 182 q 444 313 474 283 q 366 343 414 343 q 245 298 305 343 m 1222 206 l 1222 185 q 1240 127 1222 147 q 1291 106 1258 106 q 1329 119 1314 106 q 1344 153 1344 131 q 1325 191 1344 175 q 1251 206 1306 206 l 1222 206 z "},"௸":{"ha":3063,"x_min":76,"x_max":2979,"o":"m 2332 0 l 1703 0 l 1698 113 q 1764 371 1764 231 q 1716 553 1764 484 q 1576 644 1668 623 q 1611 432 1611 532 q 1536 189 1611 272 q 1316 106 1461 106 q 1088 183 1171 106 q 1005 399 1005 260 q 1088 630 1005 532 q 1324 771 1171 727 q 1109 960 1250 892 q 806 1028 969 1028 q 528 969 652 1028 q 337 797 404 910 q 270 526 270 684 q 295 334 270 418 q 365 197 319 250 q 355 271 355 233 q 430 452 355 382 q 633 522 506 522 q 845 449 768 522 q 922 254 922 376 q 831 54 922 125 q 570 -16 739 -16 q 310 49 421 -16 q 137 238 198 114 q 76 528 76 362 q 167 871 76 722 q 426 1100 258 1019 q 807 1181 593 1181 q 1238 1083 1055 1181 q 1520 796 1421 985 q 1852 686 1740 793 q 1965 394 1965 579 q 1914 147 1965 275 l 2364 147 l 2394 261 q 2167 349 2245 277 q 2089 541 2089 420 q 2124 669 2089 610 q 2223 763 2159 729 q 2374 796 2288 796 q 2574 732 2506 796 q 2642 566 2642 668 q 2624 406 2642 491 q 2705 428 2666 412 q 2802 482 2745 444 l 2979 482 l 2979 0 l 2523 0 l 2423 -394 l 2237 -345 l 2332 0 m 2430 401 q 2451 558 2451 499 q 2376 652 2451 652 q 2301 620 2329 652 q 2274 532 2274 587 q 2313 441 2274 473 q 2430 401 2352 408 m 1385 636 q 1247 547 1295 610 q 1198 397 1198 483 q 1228 293 1198 333 q 1307 253 1257 253 q 1417 431 1417 253 q 1385 636 1417 538 m 562 125 l 578 125 q 693 158 656 121 q 730 260 730 195 q 704 346 730 311 q 629 381 677 381 q 554 349 583 381 q 525 261 525 316 q 562 125 525 186 m 2806 325 q 2714 285 2768 301 q 2589 261 2660 269 l 2560 147 l 2804 147 l 2804 226 q 2806 325 2804 273 m 2298 -446 z "},"௹":{"ha":1633,"x_min":78,"x_max":1573,"o":"m 1326 730 l 975 730 l 975 803 q 1017 925 1017 860 q 975 1024 1017 991 q 852 1058 934 1058 q 752 1039 803 1058 q 872 990 829 1035 q 916 882 916 945 q 869 765 916 806 q 739 724 823 724 q 616 758 666 724 q 547 850 566 791 q 342 615 413 760 q 272 287 272 470 l 272 258 q 417 -150 272 -5 q 836 -295 563 -295 l 866 -295 q 1236 -198 1103 -295 q 1369 75 1369 -101 q 1230 251 1369 251 q 1135 223 1182 251 l 1135 0 l 930 0 l 930 527 l 722 527 l 722 0 l 517 0 l 517 674 l 1336 674 l 1336 527 l 1135 527 l 1135 367 q 1280 398 1202 398 q 1494 316 1415 398 q 1573 84 1573 234 q 1380 -308 1573 -169 q 855 -446 1187 -446 l 836 -446 q 431 -363 603 -446 q 169 -122 259 -279 q 78 250 78 35 l 78 291 q 204 733 78 541 q 562 1019 331 926 q 683 1139 600 1097 q 879 1181 766 1181 q 1093 1122 1016 1181 q 1171 961 1171 1063 q 1164 907 1171 937 q 1147 854 1158 877 l 1326 854 l 1326 730 m 668 915 q 686 857 668 877 q 737 836 704 836 q 775 848 760 836 q 790 882 790 861 q 774 917 790 904 q 730 929 758 929 q 668 915 699 929 z "},"௺":{"ha":1813,"x_min":56,"x_max":1790,"o":"m 111 780 l 783 780 q 847 929 786 869 q 1019 999 908 989 q 1141 1134 1059 1086 q 1333 1181 1223 1181 q 1555 1114 1476 1181 q 1634 928 1634 1046 q 1611 802 1634 861 l 1790 802 l 1790 677 l 1438 677 l 1438 751 q 1480 897 1480 819 q 1439 1016 1480 975 q 1316 1056 1397 1056 q 1177 1001 1232 1056 q 1331 956 1283 1000 q 1379 837 1379 911 q 1331 715 1379 758 q 1200 672 1283 672 q 1050 726 1105 672 q 995 875 996 779 q 930 768 932 852 l 930 633 l 730 633 l 730 467 q 884 503 802 503 q 1100 418 1021 503 q 1178 178 1178 332 q 1146 -1 1178 77 q 1048 -132 1115 -79 q 878 -209 981 -184 q 600 -233 774 -233 l 486 -233 q 351 -243 391 -233 q 286 -284 311 -254 q 261 -378 261 -314 q 264 -437 261 -406 l 64 -446 q 56 -327 56 -379 q 93 -198 56 -253 q 197 -114 130 -142 q 396 -86 265 -86 l 583 -86 q 831 -59 755 -86 q 942 23 906 -32 q 979 174 979 78 q 943 310 979 263 q 837 356 907 356 q 730 321 779 356 l 730 0 l 525 0 l 525 633 l 316 633 l 316 0 l 111 0 l 111 780 m 1132 884 l 1132 863 q 1150 804 1132 825 q 1201 784 1168 784 q 1239 796 1223 784 q 1254 830 1254 808 q 1235 868 1254 852 q 1161 884 1216 884 l 1132 884 z "},"!":{"ha":425,"x_min":94,"x_max":331,"o":"m 296 329 l 131 329 l 96 991 l 331 991 l 296 329 m 213 212 q 300 183 269 212 q 331 97 331 153 q 299 12 331 41 q 213 -18 267 -18 q 125 12 157 -18 q 94 97 94 41 q 124 183 94 153 q 213 212 155 212 z "},"\"":{"ha":665,"x_min":95,"x_max":570,"o":"m 284 1111 l 256 753 l 123 753 l 95 1111 l 284 1111 m 570 1111 l 543 753 l 409 753 l 381 1111 l 570 1111 m 336 990 m 337 1181 z "},"#":{"ha":924,"x_min":44,"x_max":880,"o":"m 691 572 l 659 415 l 834 415 l 834 275 l 633 275 l 581 0 l 431 0 l 484 275 l 353 275 l 301 0 l 155 0 l 205 275 l 44 275 l 44 415 l 232 415 l 264 572 l 93 572 l 93 714 l 289 714 l 341 990 l 490 990 l 437 714 l 572 714 l 625 990 l 770 990 l 718 714 l 880 714 l 880 572 l 691 572 m 379 415 l 512 415 l 544 572 l 411 572 l 379 415 z "},"%":{"ha":1251,"x_min":43,"x_max":1208,"o":"m 277 383 q 104 464 165 383 q 43 696 43 545 q 101 928 43 850 q 277 1006 159 1006 q 452 925 391 1006 q 514 696 514 845 q 454 462 514 541 q 277 383 394 383 m 278 524 q 343 694 343 524 q 278 864 343 864 q 229 822 245 864 q 214 694 214 780 q 229 566 214 609 q 278 524 245 524 m 981 991 l 431 0 l 268 0 l 818 991 l 981 991 m 971 -12 q 798 69 859 -12 q 737 300 737 150 q 795 532 737 454 q 971 610 854 610 q 1147 529 1085 610 q 1208 300 1208 449 q 1149 66 1208 145 q 971 -12 1089 -12 m 972 127 q 1038 298 1038 127 q 972 468 1038 468 q 924 426 939 468 q 908 298 908 384 q 924 170 908 213 q 972 127 939 127 z "},"'":{"ha":379,"x_min":95,"x_max":337,"o":"m 284 1111 l 256 753 l 123 753 l 95 1111 l 284 1111 m 336 990 m 337 1181 z "},"(":{"ha":471,"x_min":54,"x_max":431,"o":"m 261 -339 q 109 -5 163 -201 q 54 391 54 190 q 109 782 54 583 q 261 1111 164 981 l 429 1111 q 287 768 338 964 q 235 390 235 573 q 287 6 235 197 q 431 -339 338 -186 l 261 -339 m 332 0 m 347 -446 m 132 990 m 134 1181 z "},")":{"ha":471,"x_min":41,"x_max":417,"o":"m 210 1111 q 363 775 310 970 q 417 380 417 581 q 361 -12 417 187 q 210 -339 306 -212 l 42 -339 q 185 6 134 -188 q 236 382 236 200 q 185 764 236 572 q 41 1111 134 956 l 210 1111 m 129 0 m 144 -446 m 336 990 m 337 1181 z "},"*":{"ha":757,"x_min":43,"x_max":714,"o":"m 467 1112 l 439 862 l 692 932 l 714 762 l 484 745 l 635 544 l 481 462 l 375 674 l 282 463 l 122 544 l 272 745 l 43 763 l 69 932 l 317 862 l 289 1112 l 467 1112 m 539 990 m 541 1181 z "},"+":{"ha":793,"x_min":60,"x_max":733,"o":"m 322 415 l 60 415 l 60 564 l 322 564 l 322 828 l 471 828 l 471 564 l 733 564 l 733 415 l 471 415 l 471 154 l 322 154 l 322 415 m 405 0 m 376 990 z "},",":{"ha":403,"x_min":43,"x_max":311,"o":"m 311 146 q 192 -179 276 9 l 43 -179 q 111 161 89 15 l 301 161 l 311 146 m 61 0 z "},"-":{"ha":447,"x_min":41,"x_max":406,"o":"m 41 288 l 41 457 l 406 457 l 406 288 l 41 288 m 197 0 m 201 780 z "},".":{"ha":396,"x_min":79,"x_max":317,"o":"m 199 212 q 286 183 254 212 q 317 97 317 153 q 284 12 317 41 q 199 -18 252 -18 q 111 12 143 -18 q 79 97 79 41 q 110 183 79 153 q 199 212 141 212 z "},"/":{"ha":591,"x_min":24,"x_max":568,"o":"m 568 1111 l 198 -339 l 24 -339 l 393 1111 l 568 1111 m 332 0 m 347 -446 m 268 990 m 269 1181 z "},":":{"ha":396,"x_min":79,"x_max":317,"o":"m 199 772 q 286 743 254 772 q 317 657 317 713 q 285 572 317 602 q 199 542 254 542 q 111 572 142 542 q 79 657 79 602 q 110 743 79 713 q 199 772 141 772 m 199 212 q 286 183 254 212 q 317 97 317 153 q 284 12 317 41 q 199 -18 252 -18 q 111 12 143 -18 q 79 97 79 41 q 110 183 79 153 q 199 212 141 212 m 201 780 z "},";":{"ha":403,"x_min":43,"x_max":317,"o":"m 199 772 q 286 743 254 772 q 317 657 317 713 q 285 572 317 602 q 199 542 254 542 q 111 572 142 542 q 79 657 79 602 q 110 743 79 713 q 199 772 141 772 m 301 161 l 311 146 q 192 -179 276 9 l 43 -179 q 111 161 89 15 l 301 161 m 292 0 m 296 780 z "},"<":{"ha":793,"x_min":60,"x_max":733,"o":"m 733 138 l 60 435 l 60 532 l 733 868 l 733 705 l 269 490 l 733 300 l 733 138 m 405 0 m 376 990 z "},"=":{"ha":793,"x_min":60,"x_max":733,"o":"m 60 547 l 60 694 l 733 694 l 733 547 l 60 547 m 60 283 l 60 432 l 733 432 l 733 283 l 60 283 m 405 0 m 376 990 z "},">":{"ha":793,"x_min":60,"x_max":733,"o":"m 60 300 l 524 490 l 60 705 l 60 868 l 733 532 l 733 435 l 60 138 l 60 300 m 405 0 m 376 990 z "},"?":{"ha":651,"x_min":51,"x_max":620,"o":"m 51 939 q 188 991 124 976 q 336 1006 252 1006 q 545 940 470 1006 q 620 760 620 873 q 607 665 620 703 q 567 594 594 628 q 484 509 541 561 q 403 423 421 450 q 385 370 385 396 l 385 329 l 205 329 l 205 379 q 235 490 205 440 q 334 595 265 540 q 392 648 374 626 q 417 690 410 669 q 424 749 424 711 q 390 814 424 790 q 303 839 356 839 q 119 791 208 839 l 51 939 m 302 212 q 389 183 358 212 q 420 97 420 153 q 388 12 420 41 q 302 -18 356 -18 q 215 12 247 -18 q 183 97 183 41 q 214 183 183 153 q 302 212 245 212 z "},"[":{"ha":473,"x_min":95,"x_max":452,"o":"m 423 -339 l 95 -339 l 95 1111 l 423 1111 l 423 968 l 271 968 l 271 -196 l 423 -196 l 423 -339 m 332 0 m 347 -446 m 451 990 m 452 1181 z "},"\\":{"ha":591,"x_min":24,"x_max":568,"o":"m 198 1111 l 568 -339 l 393 -339 l 24 1111 l 198 1111 m 264 0 m 279 -446 m 336 990 m 337 1181 z "},"]":{"ha":473,"x_min":50,"x_max":412,"o":"m 50 -196 l 202 -196 l 202 968 l 50 968 l 50 1111 l 378 1111 l 378 -339 l 50 -339 l 50 -196 m 129 0 m 144 -446 m 410 990 m 412 1181 z "},"^":{"ha":870,"x_min":43,"x_max":827,"o":"m 43 353 l 367 997 l 465 997 l 827 353 l 665 353 l 420 789 l 203 353 l 43 353 m 405 0 z "},"_":{"ha":571,"x_min":-3,"x_max":574,"o":"m 574 -220 l -3 -220 l -3 -125 l 574 -125 l 574 -220 m 405 0 m 404 -446 z "},"{":{"ha":534,"x_min":34,"x_max":484,"o":"m 484 958 q 407 929 431 957 q 382 842 382 902 l 382 543 q 224 393 382 417 l 224 385 q 382 235 382 361 l 382 -70 q 407 -158 382 -130 q 484 -186 432 -185 l 484 -339 q 327 -318 389 -339 q 232 -248 264 -296 q 201 -109 201 -199 l 201 186 q 160 277 201 248 q 34 307 119 307 l 34 469 q 160 499 119 469 q 201 590 201 528 l 201 882 q 231 1018 201 970 q 325 1089 262 1067 q 484 1111 387 1111 l 484 958 m 129 0 m 144 -446 m 132 990 m 134 1181 z "},"|":{"ha":765,"x_min":309,"x_max":551,"o":"m 309 1111 l 457 1111 l 457 -339 l 309 -339 l 309 1111 m 536 0 m 551 -446 m 539 990 m 541 1181 z "},"}":{"ha":534,"x_min":50,"x_max":500,"o":"m 50 1111 q 211 1088 148 1111 q 303 1018 273 1066 q 334 882 334 970 l 334 590 q 375 499 334 528 q 500 469 416 469 l 500 307 q 374 277 415 307 q 334 186 334 248 l 334 -109 q 302 -248 334 -199 q 209 -317 271 -296 q 50 -339 146 -339 l 50 -186 q 127 -158 102 -185 q 152 -70 152 -130 l 152 235 q 311 385 152 361 l 311 393 q 152 543 152 417 l 152 842 q 127 929 152 902 q 50 958 103 957 l 50 1111 m 400 0 m 415 -446 m 376 990 m 378 1181 z "},"~":{"ha":793,"x_min":60,"x_max":733,"o":"m 60 374 l 60 530 q 233 604 130 604 q 320 595 280 604 q 421 561 360 586 q 503 532 467 541 q 575 524 539 524 q 654 546 612 524 q 733 606 696 568 l 733 449 q 559 375 665 375 q 464 386 507 375 q 372 418 420 397 q 286 448 320 439 q 218 456 251 456 q 141 434 182 456 q 60 374 99 412 m 405 0 m 376 990 z "},"­":{"ha":447,"x_min":41,"x_max":406,"o":"m 41 288 l 41 457 l 406 457 l 406 288 l 41 288 m 197 0 m 201 780 z "},"–":{"ha":694,"x_min":56,"x_max":639,"o":"m 56 288 l 56 457 l 639 457 l 639 288 l 56 288 m 197 0 m 201 780 z "},"—":{"ha":1389,"x_min":56,"x_max":1333,"o":"m 56 288 l 56 457 l 1333 457 l 1333 288 l 56 288 m 197 0 m 201 780 z "},"‘":{"ha":374,"x_min":53,"x_max":321,"o":"m 62 771 l 53 786 q 172 1111 87 924 l 321 1111 q 252 771 275 916 l 62 771 m 98 990 m 100 1181 z "},"’":{"ha":374,"x_min":53,"x_max":321,"o":"m 311 1111 l 321 1096 q 201 771 286 962 l 53 771 q 121 1111 100 976 l 311 1111 m 309 990 m 310 1181 z "},"“":{"ha":690,"x_min":53,"x_max":637,"o":"m 370 787 q 489 1112 404 924 l 637 1112 q 569 772 591 916 l 379 772 l 370 787 m 53 787 q 172 1112 87 924 l 321 1112 q 252 772 275 916 l 62 772 l 53 787 m 390 990 m 391 1181 z "},"”":{"ha":690,"x_min":53,"x_max":637,"o":"m 321 1097 q 201 772 286 962 l 53 772 q 121 1112 100 977 l 311 1112 l 321 1097 m 637 1097 q 518 772 603 962 l 370 772 q 437 1112 417 977 l 627 1112 l 637 1097 m 356 990 m 357 1181 z "},"…":{"ha":1187,"x_min":79,"x_max":1108,"o":"m 199 212 q 286 183 254 212 q 317 97 317 153 q 284 12 317 41 q 199 -18 252 -18 q 111 12 143 -18 q 79 97 79 41 q 110 183 79 153 q 199 212 141 212 m 595 212 q 682 183 650 212 q 713 97 713 153 q 681 12 713 41 q 595 -18 648 -18 q 507 12 539 -18 q 475 97 475 41 q 506 183 475 153 q 595 212 537 212 m 990 212 q 1077 183 1046 212 q 1108 97 1108 153 q 1076 12 1108 41 q 990 -18 1044 -18 q 903 12 935 -18 q 871 97 871 41 q 902 183 871 153 q 990 212 932 212 z "},"×":{"ha":793,"x_min":87,"x_max":705,"o":"m 290 490 l 87 694 l 191 799 l 395 596 l 602 799 l 705 697 l 498 490 l 703 285 l 602 182 l 395 386 l 191 183 l 89 286 l 290 490 m 405 0 m 376 990 z "},"÷":{"ha":793,"x_min":60,"x_max":733,"o":"m 396 829 q 466 803 441 829 q 490 726 490 776 q 464 651 490 677 q 396 624 438 624 q 327 651 353 624 q 301 726 301 677 q 326 803 301 777 q 396 829 350 829 m 60 415 l 60 564 l 733 564 l 733 415 l 60 415 m 396 355 q 466 329 441 355 q 490 253 490 302 q 464 177 490 204 q 396 150 438 150 q 327 177 352 150 q 301 253 301 204 q 326 329 301 302 q 396 355 350 355 m 405 0 m 376 990 z "},"−":{"ha":793,"x_min":60,"x_max":733,"o":"m 60 415 l 60 564 l 733 564 l 733 415 l 60 415 m 405 0 m 376 990 z "},"₹":{"ha":793,"x_min":75,"x_max":728,"o":"m 517 600 q 447 450 504 509 q 290 361 391 390 l 565 0 l 326 0 l 75 351 l 101 491 l 149 491 q 234 500 202 491 q 289 534 267 509 q 321 600 312 559 l 75 600 l 75 747 l 319 747 q 291 803 309 782 q 247 834 273 825 q 169 844 220 844 l 75 844 l 75 991 l 728 991 l 728 844 l 456 844 q 511 747 494 810 l 728 747 l 728 600 l 517 600 z "},"‌":{"ha":0,"x_min":-41,"x_max":41,"o":"m -41 -339 l -41 1046 l 41 1046 l 41 -339 l -41 -339 z "},"‍":{"ha":0,"x_min":-223,"x_max":223,"o":"m 56 877 l 223 713 l 168 659 l 41 785 l 41 -339 l -41 -339 l -41 785 l -168 659 l -223 713 l -56 877 l -223 1039 l -168 1094 l 0 929 l 168 1094 l 223 1039 l 56 877 z "},"◌":{"ha":780,"x_min":79,"x_max":700,"o":"m 433 633 q 390 589 433 589 q 345 633 345 589 q 390 676 345 676 q 433 633 433 676 m 235 557 q 192 512 235 512 q 148 557 148 512 q 192 600 148 600 q 235 557 235 600 m 631 557 q 588 512 631 512 q 543 557 543 512 q 588 600 543 600 q 631 557 631 600 m 700 366 q 656 321 700 321 q 612 366 612 321 q 656 410 612 410 q 700 366 700 410 m 168 366 q 123 321 168 321 q 79 366 79 321 q 123 410 79 410 q 168 366 168 410 m 235 176 q 192 132 235 132 q 148 176 148 132 q 192 220 148 220 q 235 176 235 220 m 631 176 q 588 132 631 132 q 543 176 543 132 q 588 220 543 220 q 631 176 631 220 m 433 100 q 390 56 433 56 q 345 100 345 56 q 390 144 345 144 q 433 100 433 144 m 400 0 m 404 780 z "},"।":{"ha":538,"x_min":222,"x_max":452,"o":"m 222 -68 l 222 837 l 427 837 l 427 -68 l 222 -68 m 448 0 m 452 780 z "},"॥":{"ha":945,"x_min":222,"x_max":834,"o":"m 222 -68 l 222 837 l 427 837 l 427 -68 l 222 -68 m 629 -68 l 629 837 l 834 837 l 834 -68 l 629 -68 m 536 0 m 540 780 z "}}}
